<svg id="Layer_1" data-name="Layer 1" xmlns="http://www.w3.org/2000/svg" viewBox="0 0 77.31 77.31"><defs><style>.cls-1{fill:#ffd85f;}.cls-2{fill:#fff;}</style></defs><path class="cls-1" d="M38.65,0H77.31a0,0,0,0,1,0,0V38.66A38.65,38.65,0,0,1,38.66,77.31h0A38.65,38.65,0,0,1,0,38.66v0A38.65,38.65,0,0,1,38.65,0Z"/><path id="_3" data-name="3" class="cls-2" d="M27.11,33.87a.56.56,0,1,1,.35-1.07,4.94,4.94,0,0,1,3.32,3.68,4.21,4.21,0,0,1,.62,0,4.41,4.41,0,0,1,3.1,1.28,4.31,4.31,0,0,1,1.27,3.08.54.54,0,0,1-.54.56h0a.55.55,0,0,1-.57-.55h0a3.25,3.25,0,0,0-4.78-2.86A3.53,3.53,0,0,0,28.69,39a.55.55,0,0,1-.77.16.56.56,0,0,1-.16-.78h0A4.23,4.23,0,0,1,29.34,37a2.26,2.26,0,0,1,.35-.17,3.67,3.67,0,0,0-.77-1.66,3.72,3.72,0,0,0-1.81-1.25ZM33,49.57a.55.55,0,1,1-.63-.91l0,0a3.87,3.87,0,0,1,1.21-.54,5,5,0,0,1,1.33-.2A4.71,4.71,0,0,1,38,49a3.69,3.69,0,0,1,1.31,2.78.55.55,0,0,1-.55.56h0a.57.57,0,0,1-.57-.56h0a2.56,2.56,0,0,0-.91-1.93A3.56,3.56,0,0,0,34.91,49a4.4,4.4,0,0,0-1,.13A4.23,4.23,0,0,0,33,49.57Zm-7.16-9a.57.57,0,0,1,.62.5.58.58,0,0,1-.52.61,5.71,5.71,0,0,1-1.24,0,4.65,4.65,0,0,1-1.17-.28.56.56,0,1,1,.34-1.06l.05,0a4,4,0,0,0,.92.21,4.78,4.78,0,0,0,1,0Zm6.66-17.21a.56.56,0,0,1,1.09.27h0a2.36,2.36,0,0,0,0,.7,2.32,2.32,0,0,0,.16.68.56.56,0,0,1-.28.74.57.57,0,0,1-.74-.28s0,0,0,0a3.47,3.47,0,0,1-.24-1A3.77,3.77,0,0,1,32.46,23.34Zm1.71,8.16a.57.57,0,0,1-.59-.54.57.57,0,0,1,.54-.59h.05a2.35,2.35,0,1,1,0,4.69.56.56,0,0,1,0-1.12h0a1.26,1.26,0,0,0,.86-.36,1.23,1.23,0,0,0-.86-2.09ZM25.42,47.38a.56.56,0,0,1-1-.55,5.61,5.61,0,0,1,.85-1.09,4.93,4.93,0,0,1,1.13-.8.56.56,0,0,1,.76.21.57.57,0,0,1-.21.77l0,0a3.73,3.73,0,0,0-.86.61,4.33,4.33,0,0,0-.65.83ZM33.72,45a.57.57,0,0,1,.77.21.56.56,0,0,1-.21.76h0a2.86,2.86,0,0,1-2.87-5,.57.57,0,0,1,.77.21h0A.57.57,0,0,1,32,42a1.72,1.72,0,0,0-.65,2.35v0a1.76,1.76,0,0,0,2.39.63ZM29.55,28.91a.56.56,0,0,1,.1-.79.57.57,0,0,1,.79.09.9.9,0,0,0,.15.18,1.3,1.3,0,0,0,.77.39,1.58,1.58,0,0,0,1.09-.41c.11-.1.23-.19.34-.3v0a3.44,3.44,0,0,1,1.75-.91,3,3,0,0,1,1.9.28.56.56,0,0,1,.27.74.57.57,0,0,1-.75.27l0,0a1.82,1.82,0,0,0-1.19-.17,2.37,2.37,0,0,0-1.18.62,3.32,3.32,0,0,1-2.32,1,2.29,2.29,0,0,1-1.45-.7c-.09-.1-.18-.19-.25-.28Z"/><path id="_2" data-name="2" class="cls-2" d="M39.13,27.54a.56.56,0,0,1-.55-.57h0a.54.54,0,0,1,.55-.55h2.53a2,2,0,0,1,.45-.72,1.81,1.81,0,0,1,2.57,2.55,1.83,1.83,0,0,1-1.29.53,1.81,1.81,0,0,1-1.28-.53,2,2,0,0,1-.45-.71ZM47.2,45a.56.56,0,1,0,0-1.12h0a.55.55,0,0,0-.56.55h0a.54.54,0,0,0,.55.56Zm0,1a1.59,1.59,0,0,0,1.13-2.71,1.61,1.61,0,0,0-1.13-.46,1.59,1.59,0,0,0-1.59,1.58,1.62,1.62,0,0,0,.46,1.12A1.59,1.59,0,0,0,47.2,46Zm-8.48-2.85a.56.56,0,1,1,0-1.12h4.44a.7.7,0,0,1,.25.05l1.65.66.21-.25a2.72,2.72,0,1,1-.79,1.92,2.84,2.84,0,0,1,.08-.66l-1.51-.6Zm0,7a.57.57,0,0,1-.57-.56h0a.59.59,0,0,1,.57-.57h3.36a1.81,1.81,0,1,1,1.16,2.29,1.76,1.76,0,0,1-.72-.45,1.81,1.81,0,0,1-.44-.71Zm5.56-1a.68.68,0,0,0-1,0,.68.68,0,1,0,1,0ZM47.2,31.24a.55.55,0,0,1,.56.55h0a.56.56,0,0,1-.56.56.55.55,0,0,1-.56-.56h0a.54.54,0,0,1,.54-.56Zm2.95,6.25a.55.55,0,0,1,.57.55h0a.56.56,0,0,1-.57.56.55.55,0,0,1-.55-.56h0a.54.54,0,0,1,.54-.56ZM38.72,38.61a.57.57,0,1,1,0-1.13H47.5a2.71,2.71,0,1,1,2.09,3.22A2.76,2.76,0,0,1,48.23,40a2.71,2.71,0,0,1-.73-1.35ZM49,39.17a1.58,1.58,0,0,0,2.25,0A1.61,1.61,0,0,0,51.75,38a1.59,1.59,0,0,0-3.18,0A1.56,1.56,0,0,0,49,39.17Zm-10.31-5a.57.57,0,1,1,0-1.13h4.33l1.51-.6a2.91,2.91,0,0,1-.08-.66,2.71,2.71,0,1,1,.79,1.91,2.41,2.41,0,0,1-.21-.24l-1.65.65a.54.54,0,0,1-.25.06H38.72Zm9.61-3.51a1.64,1.64,0,0,0-1.13-.46,1.58,1.58,0,0,0-1.59,1.57h0a1.59,1.59,0,0,0,2.71,1.14A1.6,1.6,0,0,0,48.33,30.67Zm-4.45-4.18a.71.71,0,0,0-1,0,.69.69,0,0,0,1,1A.7.7,0,0,0,43.88,26.49Z"/><path id="_1" data-name="1" class="cls-2" d="M38.15,23.54V51.75a3.57,3.57,0,0,1-3,3.72,3.43,3.43,0,0,1-1.52-.19,3.19,3.19,0,0,1-2-2.39.56.56,0,0,0-.67-.42l-.14.05a4.77,4.77,0,0,1-2.68.46,3.79,3.79,0,0,1-2-.89A3.43,3.43,0,0,1,25,50.17a5.1,5.1,0,0,1,.35-2.86.55.55,0,0,0-.32-.72h0a.57.57,0,0,0-.26,0A2,2,0,0,1,23,45.87a3.1,3.1,0,0,1-.64-1.2,3.24,3.24,0,0,1-.07-1.42,2.64,2.64,0,0,1,1.5-1.9.56.56,0,0,0,.27-.74.55.55,0,0,0-.3-.28,3.24,3.24,0,0,1-1.54-1.54,4,4,0,0,1-.38-2.07,3.64,3.64,0,0,1,.76-2,4,4,0,0,1,2.23-1.3.56.56,0,0,0,.42-.67.65.65,0,0,0,0-.13,4.39,4.39,0,0,1-.44-2,4,4,0,0,1,.46-1.8,3.1,3.1,0,0,1,1.3-1.26,4,4,0,0,1,1.89-.38.56.56,0,0,0,.58-.54h0a.49.49,0,0,0,0-.12,2.63,2.63,0,0,1,.2-1.44,2.27,2.27,0,0,1,.66-.9,2.13,2.13,0,0,1,1-.46,3.15,3.15,0,0,1,1.76.28.56.56,0,0,0,.74-.3A3.22,3.22,0,0,1,35.07,22a2.62,2.62,0,0,1,1.3-.17A1.94,1.94,0,0,1,38.15,23.54Zm.53,30.66a4.33,4.33,0,0,0,1.45,1.67,4.38,4.38,0,0,0,1.95.71,4.5,4.5,0,0,0,2-.25,4.23,4.23,0,0,0,2.55-2.56,5.86,5.86,0,0,0,2.72.32A4.93,4.93,0,0,0,52,52.92a4.54,4.54,0,0,0,1.43-2.54,5.73,5.73,0,0,0-.15-2.73,3.18,3.18,0,0,0,1.85-1A4.23,4.23,0,0,0,56,45,4.34,4.34,0,0,0,56.11,43a3.71,3.71,0,0,0-1.3-2.19,4.44,4.44,0,0,0,1.28-1.57,5.16,5.16,0,0,0,.5-2.65,4.77,4.77,0,0,0-1-2.58,4.82,4.82,0,0,0-2.22-1.52,5.43,5.43,0,0,0,.3-2,4.91,4.91,0,0,0-.61-2.3,4.08,4.08,0,0,0-1.78-1.73,5.23,5.23,0,0,0-1.81-.48,3.81,3.81,0,0,0-.32-1.44,3.44,3.44,0,0,0-1-1.32,3.15,3.15,0,0,0-1.58-.7,4,4,0,0,0-1.88.18A4.2,4.2,0,0,0,42.65,21a3.77,3.77,0,0,0-1.85-.24,3.1,3.1,0,0,0-1.63.72,2.52,2.52,0,0,0-.47.51,3.34,3.34,0,0,0-2.19-1.23,3.73,3.73,0,0,0-1.84.24,4.16,4.16,0,0,0-2.06,1.8,4.17,4.17,0,0,0-1.89-.17,3.21,3.21,0,0,0-1.58.71,3.36,3.36,0,0,0-1,1.32,3.54,3.54,0,0,0-.3,1.44,4.82,4.82,0,0,0-1.82.48,4.07,4.07,0,0,0-1.79,1.72,5,5,0,0,0-.6,2.31,5.41,5.41,0,0,0,.3,2,4.9,4.9,0,0,0-2.22,1.52,4.7,4.7,0,0,0-1,2.59,5.12,5.12,0,0,0,.5,2.64,4.47,4.47,0,0,0,1.28,1.58,3.56,3.56,0,0,0-1.3,2.19A4,4,0,0,0,21.28,45a4.16,4.16,0,0,0,.9,1.65,3.16,3.16,0,0,0,1.85,1,5.87,5.87,0,0,0-.15,2.73,4.54,4.54,0,0,0,1.43,2.54,4.93,4.93,0,0,0,2.62,1.17,5.86,5.86,0,0,0,2.72-.32,4.25,4.25,0,0,0,2.55,2.56,4.44,4.44,0,0,0,5.48-2.13Zm.6-30.66a1.83,1.83,0,0,1,.61-1.25A2.09,2.09,0,0,1,41,21.84a2.54,2.54,0,0,1,1.28.17,3.13,3.13,0,0,1,1.68,1.69.58.58,0,0,0,.75.29,3.19,3.19,0,0,1,1.75-.28,2.22,2.22,0,0,1,1.05.46,2.37,2.37,0,0,1,.66.9,2.76,2.76,0,0,1,.19,1.45.57.57,0,0,0,.45.65h.11a3.88,3.88,0,0,1,1.9.37,3.06,3.06,0,0,1,1.31,1.26,4.07,4.07,0,0,1,.46,1.8,4.3,4.3,0,0,1-.45,2,.56.56,0,0,0,.22.74.49.49,0,0,0,.17.06,3.91,3.91,0,0,1,2.22,1.29,3.54,3.54,0,0,1,.77,2,4.09,4.09,0,0,1-.38,2.07,3.22,3.22,0,0,1-1.55,1.54.55.55,0,0,0-.29.27.56.56,0,0,0,.26.75h0A2.66,2.66,0,0,1,55,43.25a3.1,3.1,0,0,1-.08,1.42,2.29,2.29,0,0,1-2.36,1.88h0a.63.63,0,0,0-.27,0,.55.55,0,0,0-.32.72,5.11,5.11,0,0,1,.35,2.86,3.43,3.43,0,0,1-1.08,1.92,3.79,3.79,0,0,1-2,.89,4.77,4.77,0,0,1-2.68-.46.57.57,0,0,0-.76.24.5.5,0,0,0,0,.13,3.17,3.17,0,0,1-2,2.39,3.42,3.42,0,0,1-1.52.19,3.22,3.22,0,0,1-1.44-.53,3.65,3.65,0,0,1-1.49-3.19Z"/></svg>