<svg xmlns="http://www.w3.org/2000/svg" width="94.14" height="87.354" viewBox="0 0 94.14 87.354">
  <g id="Group_1334" data-name="Group 1334">
    <path id="unshape_round" data-name="unshape round" d="M90.121,27.975C85.561,19.559,77.686,13.49,69.26,9.259,60.117,4.678,49.74.955,39.5.14c-8.865-.706-18.285,1.377-24.96,7.545C9.966,11.936,6.375,18.908,3.9,24.439,1.837,29.043.151,33.912-.036,38.991-.4,48.955,5.2,58.212,9.952,66.581c4.55,8,10.133,15.366,19.122,18.527,8.6,3.029,18.494,2.7,27.317.815C73.772,82.2,89.2,70.227,93.17,52.317A35.032,35.032,0,0,0,90.121,27.975Z" transform="translate(0.053 -0.008)"/>
  </g>
  <g id="SvgjsG1008" transform="translate(22.365 19.954)">
    <g id="Group_1301" data-name="Group 1301" transform="translate(0)">
      <g id="Group_1300" data-name="Group 1300">
        <path id="Path_1458" data-name="Path 1458" d="M3.4,48.932H8.112a1.572,1.572,0,0,0,1.57-1.57v-1.57H27.425a21.018,21.018,0,0,0,20.7-17.367l.341-1.929a2.947,2.947,0,0,0-4.248-3.141V19.891H45a.784.784,0,0,0,.552-1.339l-6.279-6.279a.784.784,0,0,0-1.11,0l-1.8,1.8V3.409a.784.784,0,0,0-.782-.787H27.735a.784.784,0,0,0-.785.787v8.634h-3.18a12.781,12.781,0,0,0-1.394-2.528L24.36,4.667A1.361,1.361,0,0,0,22.5,2.927L21.01,3.67l-.935-1.246a1.361,1.361,0,0,0-2.055-.147l-1.19,1.2-.784-1.049a1.361,1.361,0,0,0-2.055-.147l-1.5,1.506-2.263-.647A1.361,1.361,0,0,0,8.656,5.093L11.03,9.475c-1.667,1.509-3.7,5.736-3.7,9.58v2.409a4.714,4.714,0,0,0,4.709,4.707H42.163l-1.657,3.316-4.316,1.85a3.919,3.919,0,0,0-3.744-2.812h-11.3A21.715,21.715,0,0,0,9.683,31.779V30.1a1.572,1.572,0,0,0-1.57-1.57H3.4a1.572,1.572,0,0,0-1.57,1.57V47.363a1.572,1.572,0,0,0,1.57,1.57ZM12.179,5.327a1.358,1.358,0,0,0,1.336-.346l1.423-1.423.784,1.049a1.361,1.361,0,0,0,2.051.142l1.194-1.193.894,1.193a1.357,1.357,0,0,0,1.7.4L22.7,4.579,20.928,8.9H18.8l1-2-1.4-.7L17.047,8.9H15.67L14.576,6.627l-1.417.68.767,1.6H12.5L10.273,4.782Zm7.707,7.5V24.6H12.037a3.143,3.143,0,0,1-3.14-3.14V19.052c0-4.2,2.6-8.12,3.345-8.581h8.89a8.456,8.456,0,0,1,.9,1.57H20.671a.784.784,0,0,0-.785.786Zm1.57.785H26.95V24.6H21.455Zm17.267.325,4.384,4.384H34.339Zm-10.2-9.743H34.8V15.642l-2.909,2.91a.784.784,0,0,0,.555,1.34h.785V24.6h-4.71Zm6.279,15.7h7.851V24.6H41.078v-3.14a.784.784,0,0,0-.785-.785H37.154a.784.784,0,0,0-.785.785V24.6H34.8ZM39.507,24.6h-1.57V22.247h1.57ZM21.144,30.1h11.3a2.355,2.355,0,0,1,0,4.709H19.886v1.57H32.445a3.917,3.917,0,0,0,3.87-3.384l5.073-2.174a.779.779,0,0,0,.393-.371l2.54-5.081a1.385,1.385,0,0,1,2.6.86l-.341,1.93A19.45,19.45,0,0,1,27.425,44.223H9.683V33.659A20.162,20.162,0,0,1,21.144,30.1ZM3.4,30.1H8.113V47.363H3.4Z" transform="translate(-1.833 -1.84)" fill="#fff"/>
        <path id="Path_1459" data-name="Path 1459" d="M5.5,37.585H7.07v2.355H5.5Z" transform="translate(-2.36 -6.974)" fill="#fff"/>
        <path id="Path_1460" data-name="Path 1460" d="M34.835,6.417h.785v1.57h-.785Z" transform="translate(-6.579 -2.493)" fill="#fff"/>
        <path id="Path_1461" data-name="Path 1461" d="M37.585,6.417h.785v1.57h-.785Z" transform="translate(-6.974 -2.493)" fill="#fff"/>
        <path id="Path_1462" data-name="Path 1462" d="M34.835,10.084h.785v1.57h-.785Z" transform="translate(-6.579 -3.02)" fill="#fff"/>
        <path id="Path_1463" data-name="Path 1463" d="M37.585,10.084h.785v1.57h-.785Z" transform="translate(-6.974 -3.02)" fill="#fff"/>
        <path id="Path_1464" data-name="Path 1464" d="M34.835,13.75h.785v1.57h-.785Z" transform="translate(-6.579 -3.547)" fill="#fff"/>
        <path id="Path_1465" data-name="Path 1465" d="M37.585,13.75h.785v1.57h-.785Z" transform="translate(-6.974 -3.547)" fill="#fff"/>
        <path id="Path_1466" data-name="Path 1466" d="M26.584,17.417h.785v1.57h-.785Z" transform="translate(-5.392 -4.074)" fill="#fff"/>
        <path id="Path_1467" data-name="Path 1467" d="M29.334,17.417h.785v1.57h-.785Z" transform="translate(-5.788 -4.074)" fill="#fff"/>
        <path id="Path_1468" data-name="Path 1468" d="M26.584,21.084h.785v1.57h-.785Z" transform="translate(-5.392 -4.601)" fill="#fff"/>
        <path id="Path_1469" data-name="Path 1469" d="M29.334,21.084h.785v1.57h-.785Z" transform="translate(-5.788 -4.601)" fill="#fff"/>
        <path id="Path_1470" data-name="Path 1470" d="M26.584,24.751h.785v1.57h-.785Z" transform="translate(-5.392 -5.129)" fill="#fff"/>
        <path id="Path_1471" data-name="Path 1471" d="M29.334,24.751h.785v1.57h-.785Z" transform="translate(-5.788 -5.129)" fill="#fff"/>
        <path id="Path_1472" data-name="Path 1472" d="M34.835,17.417h.785v1.57h-.785Z" transform="translate(-6.579 -4.074)" fill="#fff"/>
        <path id="Path_1473" data-name="Path 1473" d="M37.585,17.417h.785v1.57h-.785Z" transform="translate(-6.974 -4.074)" fill="#fff"/>
        <path id="Path_1474" data-name="Path 1474" d="M19.508,16.369h-.784v-.785h-1.57v.785h-.784a.784.784,0,0,0-.785.784v2.355a.784.784,0,0,0,.785.785h2.355v.785h-3.14v.785a.784.784,0,0,0,.785.785h.785v.785h1.57v-.786h.785a.784.784,0,0,0,.785-.785V19.508a.784.784,0,0,0-.785-.785H17.153v-.784h3.14v-.785a.784.784,0,0,0-.785-.784Z" transform="translate(-3.811 -3.811)" fill="#fff"/>
        <path id="Path_1475" data-name="Path 1475" d="M48.585,3.667h1.57v1.57h-1.57Z" transform="translate(-8.556 -2.097)" fill="#fff"/>
        <path id="Path_1476" data-name="Path 1476" d="M50.418,1.833h1.57V3.4h-1.57Z" transform="translate(-8.819 -1.833)" fill="#fff"/>
        <path id="Path_1477" data-name="Path 1477" d="M52.252,3.667h1.57v1.57h-1.57Z" transform="translate(-9.083 -2.097)" fill="#fff"/>
        <path id="Path_1478" data-name="Path 1478" d="M50.418,5.5h1.57V7.07h-1.57Z" transform="translate(-8.819 -2.36)" fill="#fff"/>
        <path id="Path_1479" data-name="Path 1479" d="M55,8.25h1.57V9.82H55Z" transform="translate(-9.479 -2.756)" fill="#fff"/>
        <path id="Path_1480" data-name="Path 1480" d="M48.585,11h1.57v1.57h-1.57Z" transform="translate(-8.556 -3.151)" fill="#fff"/>
        <path id="Path_1481" data-name="Path 1481" d="M1.833,10.084H3.4v1.57H1.833Z" transform="translate(-1.833 -3.02)" fill="#fff"/>
        <path id="Path_1482" data-name="Path 1482" d="M3.667,8.25h1.57V9.82H3.667Z" transform="translate(-2.097 -2.756)" fill="#fff"/>
        <path id="Path_1483" data-name="Path 1483" d="M5.5,10.084H7.07v1.57H5.5Z" transform="translate(-2.36 -3.02)" fill="#fff"/>
        <path id="Path_1484" data-name="Path 1484" d="M3.667,11.917h1.57v1.57H3.667Z" transform="translate(-2.097 -3.284)" fill="#fff"/>
        <path id="Path_1485" data-name="Path 1485" d="M1.833,17.417H3.4v1.57H1.833Z" transform="translate(-1.833 -4.074)" fill="#fff"/>
        <path id="Path_1486" data-name="Path 1486" d="M5.5,1.833H7.07V3.4H5.5Z" transform="translate(-2.36 -1.833)" fill="#fff"/>
      </g>
    </g>
  </g>
</svg>
