<svg id="Layer_1" data-name="Layer 1" xmlns="http://www.w3.org/2000/svg" viewBox="0 0 77.31 77.31"><defs><style>.cls-1{fill:#ff5a6a;}.cls-2{fill:#fff;}</style></defs><path class="cls-1" d="M38.65,0H77.31a0,0,0,0,1,0,0V38.66A38.65,38.65,0,0,1,38.66,77.31h0A38.65,38.65,0,0,1,0,38.66v0A38.65,38.65,0,0,1,38.65,0Z"/><path class="cls-2" d="M14.73,44a35.19,35.19,0,0,0,23.88,9.2c6.6,0,14.27-2.09,19.55-6,.87-.65.12-1.64-.77-1.23a47.23,47.23,0,0,1-18.22,3.76,47.73,47.73,0,0,1-23.89-6.4C14.68,43,14.23,43.59,14.73,44ZM49.08,24.89a.36.36,0,0,0-.4-.4H47.12a1,1,0,0,0-.56.16,1.38,1.38,0,0,0-.33.63L43.46,36.15,40.92,25.28a1.06,1.06,0,0,0-.31-.63,1,1,0,0,0-.64-.16H38.62a1.15,1.15,0,0,0-.58.16,1.22,1.22,0,0,0-.3.63L35.24,36l-2.7-10.74a1.34,1.34,0,0,0-.33-.63.89.89,0,0,0-.62-.16H30a.35.35,0,0,0-.39.4v0a3,3,0,0,0,.15.64l3.77,12.54a1.25,1.25,0,0,0,.34.63.84.84,0,0,0,.61.16h1.38a1,1,0,0,0,.64-.16,1.31,1.31,0,0,0,.3-.65L39.3,27.62l2.49,10.46a1.09,1.09,0,0,0,.3.65.93.93,0,0,0,.64.17h1.44a.92.92,0,0,0,.55-.17,1.13,1.13,0,0,0,.34-.63l3.87-12.54v0a1.85,1.85,0,0,0,.11-.42A1.36,1.36,0,0,0,49.08,24.89ZM58.13,35v0a1.76,1.76,0,0,1-.83,1.5,4.3,4.3,0,0,1-2.35.54,9.53,9.53,0,0,1-1.91-.2,8.24,8.24,0,0,1-1.76-.57l-.41-.16a.93.93,0,0,0-.29,0c-.23,0-.36.16-.36.5v.83a1.14,1.14,0,0,0,.09.46,1.18,1.18,0,0,0,.5.45,7.57,7.57,0,0,0,1.85.65,10.7,10.7,0,0,0,2.47.29A7.73,7.73,0,0,0,57.42,39a5.16,5.16,0,0,0,1.78-.91,4.39,4.39,0,0,0,1.18-1.43,4.22,4.22,0,0,0,.41-1.88,3.71,3.71,0,0,0-.73-2.27,4.87,4.87,0,0,0-2.49-1.56l-2.28-.73a4.83,4.83,0,0,1-1.77-.9A1.52,1.52,0,0,1,53,28.15a1.58,1.58,0,0,1,.75-1.44,4.11,4.11,0,0,1,2.14-.45H56a7.14,7.14,0,0,1,3,.63h0a1.46,1.46,0,0,0,.62.2c.24,0,.37-.18.37-.52v-.8a.88.88,0,0,0-.14-.49h0a1.32,1.32,0,0,0-.48-.4,3.47,3.47,0,0,0-.68-.3l-.91-.26c-.34-.06-.68-.13-1.05-.17a7.69,7.69,0,0,0-1.07-.07,6.82,6.82,0,0,0-2,.28,5.14,5.14,0,0,0-1.67.84,4.2,4.2,0,0,0-1.15,1.33,3.64,3.64,0,0,0-.44,1.8,3.88,3.88,0,0,0,.81,2.35,4.85,4.85,0,0,0,2.57,1.66l2.32.73a4,4,0,0,1,1.63.84A1.57,1.57,0,0,1,58.13,35v0Z"/><path class="cls-2" d="M59.63,51.06c2.82-2.4,3.56-7.41,3-8.14s-5.54-1.33-8.56.81c-.46.34-.38.8.13.73,1.72-.21,5.51-.66,6.19.21s-.76,4.48-1.4,6.09C58.77,51.24,59.19,51.44,59.63,51.06Zm-36-20.57a12.89,12.89,0,0,0-1.7-.13A5.83,5.83,0,0,0,18,31.63,4.18,4.18,0,0,0,16.51,35a4.19,4.19,0,0,0,1.19,3.12,4.36,4.36,0,0,0,3.21,1.16A5.89,5.89,0,0,0,25.63,37l0,.07c.16.32.32.63.47.88v0a4.69,4.69,0,0,0,.57.74.72.72,0,0,0,.48.23h0a.75.75,0,0,0,.42-.14l1-.68a.65.65,0,0,0,.3-.49.71.71,0,0,0-.11-.37,9.26,9.26,0,0,1-.51-1.17,4.71,4.71,0,0,1-.18-1.45h0V29.41a5.39,5.39,0,0,0-1.33-4,5.82,5.82,0,0,0-4.21-1.32h-.09a10.48,10.48,0,0,0-4.44,1h0a1.22,1.22,0,0,0-.44.34,1,1,0,0,0-.11.57v.79c0,.34.11.51.34.51h0a.92.92,0,0,0,.25-.05h0a4,4,0,0,0,.53-.2,13.55,13.55,0,0,1,1.74-.56,7.52,7.52,0,0,1,1.74-.21,3.67,3.67,0,0,1,2.61.75,3.61,3.61,0,0,1,.75,2.6v1.18C24.81,30.71,24.2,30.58,23.61,30.49Zm1.88,2.18v.68a6.23,6.23,0,0,1-.16,1.41,2.61,2.61,0,0,1-.55,1,3.61,3.61,0,0,1-1.52,1,5.33,5.33,0,0,1-1.66.29,2.21,2.21,0,0,1-1.68-.6,2.25,2.25,0,0,1-.6-1.72,2.29,2.29,0,0,1,.79-1.87,3.73,3.73,0,0,1,2.39-.64,11.79,11.79,0,0,1,1.51.09h.07A11.43,11.43,0,0,1,25.49,32.67Z"/></svg>