<svg xmlns="http://www.w3.org/2000/svg" width="94.14" height="87.354" viewBox="0 0 94.14 87.354">
  <g id="Group_1334" data-name="Group 1334">
    <path id="unshape_round" data-name="unshape round" d="M90.121,27.975C85.561,19.559,77.686,13.49,69.26,9.259,60.117,4.678,49.74.955,39.5.14c-8.865-.706-18.285,1.377-24.96,7.545C9.966,11.936,6.375,18.908,3.9,24.439,1.837,29.043.151,33.912-.036,38.991-.4,48.955,5.2,58.212,9.952,66.581c4.55,8,10.133,15.366,19.122,18.527,8.6,3.029,18.494,2.7,27.317.815C73.772,82.2,89.2,70.227,93.17,52.317A35.032,35.032,0,0,0,90.121,27.975Z" transform="translate(0.053 -0.008)" />
  </g>
  <g id="SvgjsG1008" transform="translate(46.823 -1.706)">
    <g id="Group_1299" data-name="Group 1299" transform="translate(-23 27)">
      <g id="Group_1298" data-name="Group 1298">
        <g id="Group_473" data-name="Group 473">
          <g id="Group_472" data-name="Group 472">
            <path id="Path_1510" data-name="Path 1510" d="M45.049,36.742H2.958A2.962,2.962,0,0,0,0,39.7V68.262A2.962,2.962,0,0,0,2.958,71.22H17.194l-.576,4.607H14.232a.7.7,0,1,0,0,1.406H33.775a.7.7,0,1,0,0-1.406H31.389l-.576-4.607H45.049a2.962,2.962,0,0,0,2.958-2.958V39.7A2.962,2.962,0,0,0,45.049,36.742ZM18.036,75.827l.576-4.607H21.2l.254,1.016a2.629,2.629,0,0,0,5.1,0l.254-1.016H29.4l.576,4.607ZM22.65,71.22h2.709l-.169.674a1.222,1.222,0,0,1-2.371,0ZM46.6,68.262h0a1.553,1.553,0,0,1-1.552,1.552H2.958a1.553,1.553,0,0,1-1.552-1.552V39.7A1.553,1.553,0,0,1,2.958,38.15H45.049A1.553,1.553,0,0,1,46.6,39.7Z" transform="translate(0 -36.742)" fill="#fff"/>
          </g>
        </g>
        <g id="Group_475" data-name="Group 475" transform="translate(3.006 3.007)">
          <g id="Group_474" data-name="Group 474">
            <path id="Path_1511" data-name="Path 1511" d="M66.174,66.136H30.1a.7.7,0,0,0-.7.7V93.895a.7.7,0,0,0,.7.7h1.5a.7.7,0,0,0,0-1.406h-.8V67.543H66.174a.7.7,0,0,0,0-1.406Z" transform="translate(-29.393 -66.136)" fill="#fff"/>
          </g>
        </g>
        <g id="Group_477" data-name="Group 477" transform="translate(7.538 3.007)">
          <g id="Group_476" data-name="Group 476">
            <path id="Path_1512" data-name="Path 1512" d="M110.274,66.136h-1.5a.7.7,0,0,0,0,1.406h.8V93.195H74.2a.7.7,0,0,0,0,1.406h36.078a.7.7,0,0,0,.7-.7V66.836A.7.7,0,0,0,110.274,66.136Z" transform="translate(-73.514 -66.136)" fill="#fff"/>
          </g>
        </g>
        <g id="Group_479" data-name="Group 479" transform="translate(12.793 7.527)">
          <g id="Group_478" data-name="Group 478">
            <path id="Path_1513" data-name="Path 1513" d="M145.729,113.506a.7.7,0,0,0-.522-.269l-16.536-.751h-.039a1.457,1.457,0,0,0-.585-.787l-2.025-1.35a.7.7,0,0,0-.78,1.171l2.025,1.35a.049.049,0,0,1,.02.027l2.58,9.028a2.215,2.215,0,0,0,.383.753l-.944,1.887a1.446,1.446,0,0,0,.066,1.416,1.462,1.462,0,0,0,.361.4,2.206,2.206,0,1,0,3.971.293h6.411a2.206,2.206,0,1,0,4.031-.183.7.7,0,0,0-.472-1.224H130.607a.048.048,0,0,1-.043-.07l.87-1.739a2.207,2.207,0,0,0,.55.07,2.263,2.263,0,0,0,.266-.015l9.882-1.163a2.951,2.951,0,0,0,2.555-2.358l1.182-5.913A.7.7,0,0,0,145.729,113.506Zm-3.56,13.163a.8.8,0,1,1-.8.8A.8.8,0,0,1,142.168,126.669Zm-10.523,0a.8.8,0,1,1-.8.8A.8.8,0,0,1,131.646,126.669Zm-1.727-9.674-.882-3.085,2.812.128.488,2.956Zm2.16,5.115a.8.8,0,0,1-.864-.575l-.9-3.136h2.247l.591,3.584Zm4.119-.485-1.644.193-.563-3.419H136.2Zm0-4.632h-2.439l-.477-2.891,2.916.133Zm3.562,4.213-2.155.254V118.4h2.409Zm.381-4.213H137.6V114.3l2.769.126Zm3.156,2.718a1.548,1.548,0,0,1-1.34,1.236l-.771.09.238-2.638h2.134Zm.543-2.718h-2.288l.227-2.505,2.539.116Z" transform="translate(-124.945 -110.241)" fill="#fff"/>
          </g>
        </g>
      </g>
    </g>
  </g>
</svg>
