<svg id="Layer_1" data-name="Layer 1" xmlns="http://www.w3.org/2000/svg" viewBox="0 0 77.31 77.31"><defs><style>.cls-1{fill:#ffd85f;}.cls-2{fill:#fff;}</style></defs><path class="cls-1" d="M38.65,0H77.31a0,0,0,0,1,0,0V38.66A38.65,38.65,0,0,1,38.66,77.31h0A38.65,38.65,0,0,1,0,38.66v0A38.65,38.65,0,0,1,38.65,0Z"/><g id="motherboard"><g id="Group_3513" data-name="Group 3513"><g id="Group_3512" data-name="Group 3512"><path id="Path_5944" data-name="Path 5944" class="cls-2" d="M57.76,34a.67.67,0,0,0,.66-.66v-4a.66.66,0,0,0-.66-.65H57.1V24.82a.66.66,0,0,0-.66-.66H20.87a.65.65,0,0,0-.66.66h0v4.6h-.66a.67.67,0,0,0-.66.66h0v11.2a.66.66,0,0,0,.66.65h.66v9.22a.66.66,0,0,0,.66.66h9.22v.66a.66.66,0,0,0,.66.66h4a.65.65,0,0,0,.66-.66v-.66h1.32a.65.65,0,0,0,.66.66H40a.65.65,0,0,0,.66-.66H56.44a.66.66,0,0,0,.66-.65V40.62h.66a.66.66,0,0,0,.66-.65V36a.67.67,0,0,0-.66-.66H57.1V34ZM20.21,40.62V30.74h2v9.88ZM34,51.82H31.41V46.55H34Zm5.27-.65H38V49.85h1.32Zm16.47-.66H50.51V45.24h5.27Zm0-6.59H49.85a.66.66,0,0,0-.66.66v5.93H40.63V49.19a.66.66,0,0,0-.66-.66H37.34a.65.65,0,0,0-.66.66v1.32H35.36V45.89a.66.66,0,0,0-.66-.65h-4a.66.66,0,0,0-.66.65v4.62H21.53V41.94h1.31a.65.65,0,0,0,.66-.66V30.08a.66.66,0,0,0-.66-.66H21.53v-4H55.78v3.3H51.17a.66.66,0,0,0-.66.66v4a.67.67,0,0,0,.66.66h4.61v1.31H51.17a.67.67,0,0,0-.66.66v4a.66.66,0,0,0,.66.65h4.61Zm1.32-4.61H51.83V36.67H57.1Zm-5.27-6.59V30.09H57.1v2.63Z"/></g></g><g id="Group_3515" data-name="Group 3515"><g id="Group_3514" data-name="Group 3514"><path id="Path_5945" data-name="Path 5945" class="cls-2" d="M26.8,26.79a2,2,0,1,0,2,2h0A2,2,0,0,0,26.8,26.79Zm0,2.64a.66.66,0,1,1,.66-.66h0A.67.67,0,0,1,26.8,29.43Z"/></g></g><g id="Group_3517" data-name="Group 3517"><g id="Group_3516" data-name="Group 3516"><path id="Path_5946" data-name="Path 5946" class="cls-2" d="M45.9,26.79a2,2,0,1,0,2,2,2,2,0,0,0-2-2Zm0,2.64a.66.66,0,1,1,.66-.66h0A.67.67,0,0,1,45.9,29.43Z"/></g></g><g id="Group_3519" data-name="Group 3519"><g id="Group_3518" data-name="Group 3518"><path id="Path_5947" data-name="Path 5947" class="cls-2" d="M26.8,44.58a2,2,0,1,0,2,2,2,2,0,0,0-2-2Zm0,2.63a.66.66,0,1,1,0-1.32.67.67,0,0,1,.66.66h0a.66.66,0,0,1-.66.66Z"/></g></g><g id="Group_3521" data-name="Group 3521"><g id="Group_3520" data-name="Group 3520"><path id="Path_5948" data-name="Path 5948" class="cls-2" d="M45.9,44.58a2,2,0,1,0,2,2,2,2,0,0,0-2-2Zm0,2.63a.66.66,0,1,1,.66-.66h0a.66.66,0,0,1-.66.66Z"/></g></g><g id="Group_3523" data-name="Group 3523"><g id="Group_3522" data-name="Group 3522"><path id="Path_5949" data-name="Path 5949" class="cls-2" d="M42,26.79H30.75a.66.66,0,0,0-.66.66v2.63a.65.65,0,0,0,.66.66H42a.66.66,0,0,0,.66-.66V27.45a.67.67,0,0,0-.66-.66Zm-.66,2.64H31.41V28.11h9.88Z"/></g></g><g id="Group_3525" data-name="Group 3525"><g id="Group_3524" data-name="Group 3524"><rect id="Rectangle_787" data-name="Rectangle 787" class="cls-2" x="24.82" y="33.38" width="1.32" height="1.32"/></g></g><g id="Group_3527" data-name="Group 3527"><g id="Group_3526" data-name="Group 3526"><rect id="Rectangle_788" data-name="Rectangle 788" class="cls-2" x="24.82" y="36.01" width="1.32" height="1.32"/></g></g><g id="Group_3529" data-name="Group 3529"><g id="Group_3528" data-name="Group 3528"><rect id="Rectangle_789" data-name="Rectangle 789" class="cls-2" x="24.82" y="38.65" width="1.32" height="1.32"/></g></g><g id="Group_3531" data-name="Group 3531"><g id="Group_3530" data-name="Group 3530"><rect id="Rectangle_790" data-name="Rectangle 790" class="cls-2" x="24.82" y="41.28" width="1.32" height="1.32"/></g></g><g id="Group_3533" data-name="Group 3533"><g id="Group_3532" data-name="Group 3532"><rect id="Rectangle_791" data-name="Rectangle 791" class="cls-2" x="27.46" y="33.38" width="1.32" height="1.32"/></g></g><g id="Group_3535" data-name="Group 3535"><g id="Group_3534" data-name="Group 3534"><rect id="Rectangle_792" data-name="Rectangle 792" class="cls-2" x="27.46" y="36.01" width="1.32" height="1.32"/></g></g><g id="Group_3537" data-name="Group 3537"><g id="Group_3536" data-name="Group 3536"><rect id="Rectangle_793" data-name="Rectangle 793" class="cls-2" x="27.46" y="38.65" width="1.32" height="1.32"/></g></g><g id="Group_3539" data-name="Group 3539"><g id="Group_3538" data-name="Group 3538"><rect id="Rectangle_794" data-name="Rectangle 794" class="cls-2" x="27.46" y="41.28" width="1.32" height="1.32"/></g></g><g id="Group_3541" data-name="Group 3541"><g id="Group_3540" data-name="Group 3540"><rect id="Rectangle_795" data-name="Rectangle 795" class="cls-2" x="30.09" y="33.38" width="1.32" height="1.32"/></g></g><g id="Group_3543" data-name="Group 3543"><g id="Group_3542" data-name="Group 3542"><rect id="Rectangle_796" data-name="Rectangle 796" class="cls-2" x="30.09" y="36.01" width="1.32" height="1.32"/></g></g><g id="Group_3545" data-name="Group 3545"><g id="Group_3544" data-name="Group 3544"><rect id="Rectangle_797" data-name="Rectangle 797" class="cls-2" x="30.09" y="38.65" width="1.32" height="1.32"/></g></g><g id="Group_3547" data-name="Group 3547"><g id="Group_3546" data-name="Group 3546"><rect id="Rectangle_798" data-name="Rectangle 798" class="cls-2" x="30.09" y="41.28" width="1.32" height="1.32"/></g></g><g id="Group_3549" data-name="Group 3549"><g id="Group_3548" data-name="Group 3548"><path id="Path_5950" data-name="Path 5950" class="cls-2" d="M41.29,33.38h-7.9a.66.66,0,0,0-.66.66v7.9a.67.67,0,0,0,.66.66h7.9a.67.67,0,0,0,.66-.66V34A.66.66,0,0,0,41.29,33.38Zm-.66,7.9H34V34.69h6.58Z"/></g></g><g id="Group_3551" data-name="Group 3551"><g id="Group_3550" data-name="Group 3550"><path id="Path_5951" data-name="Path 5951" class="cls-2" d="M48.53,34H43.92a.65.65,0,0,0-.65.66v6.58a.65.65,0,0,0,.65.66h4.61a.65.65,0,0,0,.66-.66V34.7A.65.65,0,0,0,48.53,34Zm-.65,6.58h-3.3V35.35h3.3Z"/></g></g><g id="Group_3553" data-name="Group 3553"><g id="Group_3552" data-name="Group 3552"><path id="Path_5952" data-name="Path 5952" class="cls-2" d="M46.89,20.68l-.55,1.2c.37.17.73.35,1.09.54l.63-1.15C47.67,21.06,47.28,20.86,46.89,20.68Z"/></g></g><g id="Group_3555" data-name="Group 3555"><g id="Group_3554" data-name="Group 3554"><path id="Path_5953" data-name="Path 5953" class="cls-2" d="M44.45,19.75,44.06,21c.39.12.77.25,1.15.4l.47-1.23C45.28,20,44.87,19.88,44.45,19.75Z"/></g></g><g id="Group_3557" data-name="Group 3557"><g id="Group_3556" data-name="Group 3556"><path id="Path_5954" data-name="Path 5954" class="cls-2" d="M32.87,19.75c-.42.12-.83.27-1.23.42l.46,1.23c.38-.14.77-.28,1.15-.4Z"/></g></g><g id="Group_3559" data-name="Group 3559"><g id="Group_3558" data-name="Group 3558"><path id="Path_5955" data-name="Path 5955" class="cls-2" d="M30.43,20.67c-.4.19-.78.38-1.17.59l.63,1.16c.36-.2.72-.38,1.09-.55Z"/></g></g><g id="Group_3561" data-name="Group 3561"><g id="Group_3560" data-name="Group 3560"><path id="Path_5956" data-name="Path 5956" class="cls-2" d="M35.41,19.15c-.43.07-.86.16-1.28.26l.3,1.28q.59-.14,1.2-.24Z"/></g></g><g id="Group_3563" data-name="Group 3563"><g id="Group_3562" data-name="Group 3562"><path id="Path_5957" data-name="Path 5957" class="cls-2" d="M41.91,19.15l-.22,1.3q.6.11,1.2.24l.29-1.28C42.77,19.31,42.34,19.22,41.91,19.15Z"/></g></g><g id="Group_3565" data-name="Group 3565"><g id="Group_3564" data-name="Group 3564"><path id="Path_5958" data-name="Path 5958" class="cls-2" d="M38,18.9c-.44,0-.87,0-1.3.08l.12,1.31c.4,0,.81-.06,1.22-.08Z"/></g></g><g id="Group_3567" data-name="Group 3567"><g id="Group_3566" data-name="Group 3566"><path id="Path_5959" data-name="Path 5959" class="cls-2" d="M39.31,18.9l0,1.31,1.22.08L40.62,19C40.18,18.94,39.75,18.91,39.31,18.9Z"/></g></g><g id="Group_3569" data-name="Group 3569"><g id="Group_3568" data-name="Group 3568"><path id="Path_5960" data-name="Path 5960" class="cls-2" d="M44.44,56.16c-.41.14-.84.26-1.26.37l.33,1.28c.45-.12.9-.25,1.34-.4Z"/></g></g><g id="Group_3571" data-name="Group 3571"><g id="Group_3570" data-name="Group 3570"><path id="Path_5961" data-name="Path 5961" class="cls-2" d="M35.39,56.8l-.23,1.3c.45.09.92.15,1.39.2L36.69,57C36.25,56.94,35.81,56.88,35.39,56.8Z"/></g></g><g id="Group_3573" data-name="Group 3573"><g id="Group_3572" data-name="Group 3572"><path id="Path_5962" data-name="Path 5962" class="cls-2" d="M32.85,56.16l-.41,1.25c.44.15.89.28,1.35.4l.32-1.28C33.69,56.42,33.26,56.3,32.85,56.16Z"/></g></g><g id="Group_3575" data-name="Group 3575"><g id="Group_3574" data-name="Group 3574"><path id="Path_5963" data-name="Path 5963" class="cls-2" d="M49.12,53.83c-.36.25-.73.49-1.1.71l.67,1.14c.4-.24.8-.5,1.18-.76Z"/></g></g><g id="Group_3577" data-name="Group 3577"><g id="Group_3576" data-name="Group 3576"><path id="Path_5964" data-name="Path 5964" class="cls-2" d="M28.18,53.83l-.74,1.08c.38.27.77.52,1.18.76l.67-1.14C28.91,54.31,28.54,54.08,28.18,53.83Z"/></g></g><g id="Group_3579" data-name="Group 3579"><g id="Group_3578" data-name="Group 3578"><path id="Path_5965" data-name="Path 5965" class="cls-2" d="M30.44,55.16l-.59,1.18c.42.21.85.41,1.28.58l.5-1.22C31.23,55.54,30.83,55.36,30.44,55.16Z"/></g></g><g id="Group_3581" data-name="Group 3581"><g id="Group_3580" data-name="Group 3580"><path id="Path_5966" data-name="Path 5966" class="cls-2" d="M39.3,57.08c-.44,0-.88,0-1.31,0l0,1.32h1.4Z"/></g></g><g id="Group_3583" data-name="Group 3583"><g id="Group_3582" data-name="Group 3582"><path id="Path_5967" data-name="Path 5967" class="cls-2" d="M46.86,55.17c-.38.19-.79.37-1.19.54l.5,1.22c.43-.18.86-.38,1.28-.59Z"/></g></g><g id="Group_3585" data-name="Group 3585"><g id="Group_3584" data-name="Group 3584"><path id="Path_5968" data-name="Path 5968" class="cls-2" d="M41.91,56.81c-.43.07-.87.13-1.3.18l.13,1.31c.47,0,.94-.11,1.39-.2Z"/></g></g></g></svg>