<svg xmlns="http://www.w3.org/2000/svg" width="94.14" height="87.354" viewBox="0 0 94.14 87.354">
  <g id="Group_1334" data-name="Group 1334">
    <path id="unshape_round" data-name="unshape round" d="M90.121,27.975C85.561,19.559,77.686,13.49,69.26,9.259,60.117,4.678,49.74.955,39.5.14c-8.865-.706-18.285,1.377-24.96,7.545C9.966,11.936,6.375,18.908,3.9,24.439,1.837,29.043.151,33.912-.036,38.991-.4,48.955,5.2,58.212,9.952,66.581c4.55,8,10.133,15.366,19.122,18.527,8.6,3.029,18.494,2.7,27.317.815C73.772,82.2,89.2,70.227,93.17,52.317A35.032,35.032,0,0,0,90.121,27.975Z" transform="translate(0.053 -0.008)" />
  </g>
  <g id="SvgjsG1008" transform="translate(68.142 20.666)">
    <g id="Group_492" data-name="Group 492" transform="translate(-45 -4)">
      <path id="Path_1541" data-name="Path 1541" d="M46.834,43.88H33.446V28.8a.7.7,0,0,0-.7-.7H27.809V21.33a.7.7,0,1,0-1.409,0V43.88H24.991V41.2a.892.892,0,0,0-.89-.89H16.2a.892.892,0,0,0-.89.89V43.88H13.9V38.713h9.066a.894.894,0,0,0,.892-.892V35.378a.894.894,0,0,0-.892-.892H13.9V33.076h9.066a.894.894,0,0,0,.892-.892V29.741a.894.894,0,0,0-.892-.892H13.9V27.437h9.066a.894.894,0,0,0,.892-.892V24.1a.894.894,0,0,0-.892-.892H13.9V21.8h9.066a.894.894,0,0,0,.892-.892V18.467a.894.894,0,0,0-.892-.892H13.9V15.79H26.4v2.216a.7.7,0,0,0,1.409,0V15.085a.7.7,0,0,0-.7-.7H24.239V12.266a.7.7,0,0,0-.7-.7H21.609V9.113a.7.7,0,0,0-.534-.684L13.9,6.642V.711a.7.7,0,0,0-1.409,0V28.1H7.563a.7.7,0,0,0-.7.7V43.88H1.268A1.27,1.27,0,0,0,0,45.149a2.962,2.962,0,0,0,2.96,2.96H29.923a.7.7,0,0,0,0-1.409H2.96A1.553,1.553,0,0,1,1.416,45.29H46.684A1.553,1.553,0,0,1,45.14,46.7H33.333a.7.7,0,0,0,0,1.409h11.81a2.962,2.962,0,0,0,2.96-2.96,1.27,1.27,0,0,0-1.268-1.268Zm-24.38-7.985V37.3H13.9V35.895Zm0-5.637v1.409H13.9V30.26Zm0-5.637V26.03H13.9V24.62Zm0-5.637v1.409H13.9v-1.41Zm.376-4.6H13.9v-1.41H22.83ZM20.2,11.563H13.9V8.1l6.3,1.568ZM8.268,32.324H9.677v1.41H8.268Zm0,5.637H9.677V39.37H8.268Zm0,2.818h1.926a.894.894,0,0,0,.892-.893V37.445a.894.894,0,0,0-.892-.892H8.268v-1.41h1.926a.894.894,0,0,0,.892-.892V31.808a.894.894,0,0,0-.892-.892H8.268V29.506H12.5V43.88H8.268ZM32.037,39.37H30.628V37.962h1.409Zm0-5.637H30.628V32.324h1.409ZM16.723,43.88V41.72h6.859v2.16Zm11.086,0V29.506h4.228v1.409H30.109a.894.894,0,0,0-.892.892V34.25a.894.894,0,0,0,.892.892h1.926v1.409H30.109a.894.894,0,0,0-.892.892v2.442a.894.894,0,0,0,.892.894h1.926v3.1Z" transform="translate(0 -0.006)" fill="#fff"/>
      <path id="Path_1542" data-name="Path 1542" d="M329.4,54.519a3.845,3.845,0,0,0,3.845-3.835.7.7,0,1,0-1.409,0,2.432,2.432,0,1,1-1.046-1.994.7.7,0,0,0,.8-1.158A3.84,3.84,0,1,0,329.4,54.52Z" transform="translate(-292.193 -42.044)" fill="#fff"/>
      <path id="Path_1543" data-name="Path 1543" d="M286.256,9.475a14.448,14.448,0,0,0-1.075.97,1.615,1.615,0,0,0-.269,1.964l.637,1.1a1.618,1.618,0,0,0,1.833.748c.409-.114.981-.283,1.382-.444a.2.2,0,0,1,.177.014l1.178.679a.2.2,0,0,1,.1.145,14.31,14.31,0,0,0,.3,1.412,1.618,1.618,0,0,0,1.566,1.214h1.275a1.618,1.618,0,0,0,1.566-1.214,14.432,14.432,0,0,0,.3-1.412.2.2,0,0,1,.1-.145l1.18-.681a.206.206,0,0,1,.177-.014,14.511,14.511,0,0,0,1.382.444,1.618,1.618,0,0,0,1.833-.748l.637-1.1a1.615,1.615,0,0,0-.269-1.964,14.444,14.444,0,0,0-1.075-.97.2.2,0,0,1-.072-.159V7.962A.2.2,0,0,1,299.2,7.8a14.435,14.435,0,0,0,1.075-.97,1.614,1.614,0,0,0,.268-1.964l-.637-1.1a1.618,1.618,0,0,0-1.833-.748,14.4,14.4,0,0,0-1.382.444.206.206,0,0,1-.177-.014l-1.178-.679a.2.2,0,0,1-.1-.145,14.2,14.2,0,0,0-.3-1.412A1.618,1.618,0,0,0,293.366,0h-1.275a1.618,1.618,0,0,0-1.566,1.214,14.424,14.424,0,0,0-.3,1.412.2.2,0,0,1-.1.145l-1.178.679a.2.2,0,0,1-.177.014c-.4-.161-.973-.331-1.382-.444a1.618,1.618,0,0,0-1.833.748l-.637,1.1a1.615,1.615,0,0,0,.268,1.964,14.476,14.476,0,0,0,1.075.97.2.2,0,0,1,.072.159V9.316A.2.2,0,0,1,286.256,9.475Zm.869-2.785a12.81,12.81,0,0,1-.955-.869.206.206,0,0,1-.035-.25l.637-1.1a.208.208,0,0,1,.236-.1,12.828,12.828,0,0,1,1.23.393,1.6,1.6,0,0,0,1.408-.1l1.178-.679a1.6,1.6,0,0,0,.8-1.17,12.783,12.783,0,0,1,.274-1.256.208.208,0,0,1,.2-.157h1.275a.209.209,0,0,1,.2.157,12.74,12.74,0,0,1,.267,1.259,1.6,1.6,0,0,0,.8,1.17l1.178.679a1.6,1.6,0,0,0,1.408.1,12.864,12.864,0,0,1,1.23-.393.208.208,0,0,1,.236.1l.637,1.1a.206.206,0,0,1-.035.25,12.8,12.8,0,0,1-.955.869,1.6,1.6,0,0,0-.62,1.268V9.317a1.6,1.6,0,0,0,.618,1.271,12.8,12.8,0,0,1,.955.869.206.206,0,0,1,.035.25l-.637,1.1a.208.208,0,0,1-.236.1,12.831,12.831,0,0,1-1.23-.393,1.6,1.6,0,0,0-1.408.1l-1.178.679a1.6,1.6,0,0,0-.8,1.17h0a12.735,12.735,0,0,1-.273,1.256.208.208,0,0,1-.2.157h-1.275a.208.208,0,0,1-.2-.157,12.782,12.782,0,0,1-.274-1.256,1.6,1.6,0,0,0-.8-1.17l-1.178-.679a1.6,1.6,0,0,0-1.408-.1A12.836,12.836,0,0,1,287,12.9a.208.208,0,0,1-.236-.1l-.637-1.1a.206.206,0,0,1,.035-.25,12.819,12.819,0,0,1,.955-.869,1.6,1.6,0,0,0,.618-1.271V7.962a1.6,1.6,0,0,0-.618-1.271Z" transform="translate(-255.518 0)" fill="#fff"/>
    </g>
  </g>
</svg>
