<svg id="Group_1334" data-name="Group 1334" xmlns="http://www.w3.org/2000/svg" width="94.14" height="87.354" viewBox="0 0 94.14 87.354">
  <path id="unshape_round" data-name="unshape round" d="M90.121,27.975C85.561,19.559,77.686,13.49,69.26,9.259,60.117,4.678,49.74.955,39.5.14c-8.865-.706-18.285,1.377-24.96,7.545C9.966,11.936,6.375,18.908,3.9,24.439,1.837,29.043.151,33.912-.036,38.991-.4,48.955,5.2,58.212,9.952,66.581c4.55,8,10.133,15.366,19.122,18.527,8.6,3.029,18.494,2.7,27.317.815C73.772,82.2,89.2,70.227,93.17,52.317A35.032,35.032,0,0,0,90.121,27.975Z" transform="translate(0.053 -0.008)"/>
  <g id="SvgjsG1008" transform="translate(23.23 19.837)">
    <g id="Group_1293" data-name="Group 1293">
      <g id="Group_1292" data-name="Group 1292">
        <path id="Path_1520" data-name="Path 1520" d="M4.583,44.389H27.654v-12.3H4.583Zm8.6-1.538a2.293,2.293,0,0,1,4.331,0ZM6.122,33.623H7.659v1.538H9.2V33.623h1.538v1.538h1.538V33.623h1.538v1.538H15.35V33.623h1.538v1.538h1.538V33.623h1.538v1.538H21.5V33.623h1.537v1.538h1.538V33.623h1.538v9.229h-7a3.846,3.846,0,0,0-2.541-2.857l1.74-2.9L17,36.3l-2.111,3.519a3.841,3.841,0,0,0-3.3,3.029H6.122Z" transform="translate(-1.508 -5.938)" fill="#fff"/>
        <path id="Path_1521" data-name="Path 1521" d="M28.479,48.585h-7.69a1.54,1.54,0,0,0-1.538,1.538v1.538A1.54,1.54,0,0,0,20.789,53.2h7.69a1.54,1.54,0,0,0,1.538-1.538V50.123a1.54,1.54,0,0,0-1.538-1.538Zm-7.69,3.076V50.123h7.69v1.538Z" transform="translate(-3.87 -8.596)" fill="#fff"/>
        <path id="Path_1522" data-name="Path 1522" d="M6.891,48.585A2.307,2.307,0,1,0,9.2,50.892,2.307,2.307,0,0,0,6.891,48.585Zm0,3.076a.769.769,0,1,1,.769-.769A.769.769,0,0,1,6.891,51.661Z" transform="translate(-1.508 -8.596)" fill="#fff"/>
        <path id="Path_1523" data-name="Path 1523" d="M14.224,48.585a2.307,2.307,0,1,0,2.307,2.307,2.307,2.307,0,0,0-2.307-2.307Zm0,3.076a.769.769,0,1,1,.769-.769A.769.769,0,0,1,14.224,51.661Z" transform="translate(-2.689 -8.596)" fill="#fff"/>
        <path id="Path_1524" data-name="Path 1524" d="M44.751,10.145H26.613l4.2-4.2a2.944,2.944,0,1,0-4.163-4.163L19.83,8.6A10.038,10.038,0,0,1,16.6,10.758a6.148,6.148,0,1,0-8.8,1.078A8.469,8.469,0,0,0,.917,20.143v2.692a2.673,2.673,0,0,0,.708,1.8,2.3,2.3,0,0,0-.708,1.656V46.289A2.31,2.31,0,0,0,3.224,48.6H44.751A3.85,3.85,0,0,0,48.6,44.751V13.99A3.85,3.85,0,0,0,44.751,10.145ZM7.069,7.069a4.614,4.614,0,1,1,4.614,4.614A4.614,4.614,0,0,1,7.069,7.069ZM2.455,20.143a6.928,6.928,0,0,1,6.921-6.921h3.076l1.939-.269a11.614,11.614,0,0,0,6.522-3.261l6.825-6.824a1.406,1.406,0,1,1,1.989,1.989L17.854,16.729a2.674,2.674,0,0,0-.788,1.9v5.356H13.72a2.664,2.664,0,0,0,.27-1.153A2.694,2.694,0,0,0,11.3,20.143H4.762v1.538H11.3a1.154,1.154,0,0,1,0,2.307H3.608a1.155,1.155,0,0,1-1.153-1.153Zm19.994-5.834v9.679H18.6V18.631a1.149,1.149,0,0,1,.338-.816ZM28.6,46.289a.77.77,0,0,1-.77.77H3.224a.77.77,0,0,1-.769-.77V26.295a.77.77,0,0,1,.769-.769H27.833a.77.77,0,0,1,.77.769Zm-.77-22.3h-.77V20.911H43.982v4.614H30A2.3,2.3,0,0,0,27.833,23.987Zm-.77-4.614V14.76H43.982v4.614Zm3.076,12.3V27.064H43.982v4.614Zm13.842,1.538v4.614H30.14V33.217Zm3.078,11.534a2.31,2.31,0,0,1-2.309,2.309H30a2.281,2.281,0,0,0,.139-.769V39.368H43.982a1.54,1.54,0,0,0,1.538-1.537V14.759a1.54,1.54,0,0,0-1.538-1.538H27.063a1.54,1.54,0,0,0-1.538,1.538v9.229H23.987v-10a2.31,2.31,0,0,1,2.307-2.307H44.752a2.31,2.31,0,0,1,2.308,2.307Z" transform="translate(-0.917 -0.917)" fill="#fff"/>
        <path id="Path_1525" data-name="Path 1525" d="M50.892,48.585A2.307,2.307,0,1,0,53.2,50.892a2.307,2.307,0,0,0-2.307-2.307Zm0,3.076a.769.769,0,1,1,.769-.769A.769.769,0,0,1,50.892,51.661Z" transform="translate(-8.596 -8.596)" fill="#fff"/>
        <path id="Path_1526" data-name="Path 1526" d="M37.585,48.585h1.538v1.538H37.585Z" transform="translate(-6.824 -8.596)" fill="#fff"/>
        <path id="Path_1527" data-name="Path 1527" d="M37.585,52.252h1.538V53.79H37.585Z" transform="translate(-6.824 -9.187)" fill="#fff"/>
        <path id="Path_1528" data-name="Path 1528" d="M33.918,19.251h1.538v1.538H33.918Z" transform="translate(-6.233 -3.87)" fill="#fff"/>
        <path id="Path_1529" data-name="Path 1529" d="M37.585,19.251h1.538v1.538H37.585Z" transform="translate(-6.824 -3.87)" fill="#fff"/>
        <path id="Path_1530" data-name="Path 1530" d="M48.585,26.584h1.538v1.538H48.585Z" transform="translate(-8.596 -5.052)" fill="#fff"/>
        <path id="Path_1531" data-name="Path 1531" d="M44.918,26.584h1.538v1.538H44.918Z" transform="translate(-8.005 -5.052)" fill="#fff"/>
        <path id="Path_1532" data-name="Path 1532" d="M37.585,33.918h1.538v1.538H37.585Z" transform="translate(-6.824 -6.233)" fill="#fff"/>
        <path id="Path_1533" data-name="Path 1533" d="M48.585,41.251h1.538V42.79H48.585Z" transform="translate(-8.596 -7.415)" fill="#fff"/>
        <path id="Path_1534" data-name="Path 1534" d="M44.918,41.251h1.538V42.79H44.918Z" transform="translate(-8.005 -7.415)" fill="#fff"/>
      </g>
    </g>
  </g>
</svg>
