<svg xmlns="http://www.w3.org/2000/svg" width="226.723" height="161.861" viewBox="0 0 226.723 161.861">
  <g id="iot_services" data-name="iot services" transform="translate(0 -0.501)" opacity="0.06">
    <path id="Path_5969" data-name="Path 5969" d="M210.049,73.924a4.417,4.417,0,0,1-3.132-1.3,50.828,50.828,0,0,0-71.786,0,4.437,4.437,0,0,1-6.263-6.253,59.684,59.684,0,0,1,84.31,0,4.437,4.437,0,0,1-3.13,7.56Zm0,0" transform="translate(-71.027 -26.982)" fill="#1890ff"/>
    <path id="Path_5970" data-name="Path 5970" d="M342.6,60.03a4.413,4.413,0,0,1-3.144-1.309l-.055-.054a4.437,4.437,0,1,1,6.237-6.287l.1.1A4.437,4.437,0,0,1,342.6,60.03Zm0,0" transform="translate(-188.423 -28.239)" fill="#1890ff"/>
    <path id="Path_5971" data-name="Path 5971" d="M97.89,31.791a4.437,4.437,0,0,1-3.13-7.56A80.185,80.185,0,0,1,142.972,1,81.438,81.438,0,0,1,194.33,12.365a4.437,4.437,0,1,1-4.623,7.554,71.948,71.948,0,0,0-88.685,10.575,4.411,4.411,0,0,1-3.13,1.3Zm0,0" transform="translate(-52.072)" fill="#1890ff"/>
    <path id="Path_5972" data-name="Path 5972" d="M171.26,286.251a59.426,59.426,0,0,1-42.155-17.435,4.437,4.437,0,1,1,6.263-6.253,50.828,50.828,0,0,0,71.786,0,4.437,4.437,0,1,1,6.263,6.253,59.43,59.43,0,0,1-42.155,17.435Zm0,0" transform="translate(-71.266 -145.344)" fill="#1890ff"/>
    <path id="Path_5973" data-name="Path 5973" d="M167.137,326.788a81.216,81.216,0,0,1-44.656-13.356,4.437,4.437,0,0,1,4.881-7.392,72.41,72.41,0,0,0,90.764-9.25,4.437,4.437,0,1,1,6.253,6.253,81.171,81.171,0,0,1-49.543,23.369c-2.57.244-5.145.367-7.711.367Zm0,0" transform="translate(-67.088 -164.427)" fill="#1890ff"/>
    <path id="Path_5974" data-name="Path 5974" d="M98.143,304.457a4.413,4.413,0,0,1-3.112-1.279l-.188-.185a4.437,4.437,0,1,1,6.291-6.241l.119.119a4.437,4.437,0,0,1-3.11,7.58Zm0,0" transform="translate(-52.172 -164.381)" fill="#1890ff"/>
    <path id="Path_5975" data-name="Path 5975" d="M205.078,179.033a16.366,16.366,0,1,1,16.366-16.367,16.366,16.366,0,0,1-16.366,16.367Zm0-23.875a7.509,7.509,0,1,0,7.509,7.509,7.509,7.509,0,0,0-7.509-7.509Zm0,0" transform="translate(-105.144 -81.238)" fill="#1890ff"/>
    <path id="Path_5976" data-name="Path 5976" d="M16.368,172.064A16.384,16.384,0,0,1,0,155.7V101.746a16.366,16.366,0,0,1,32.732,0V155.7a16.384,16.384,0,0,1-16.364,16.364Zm0-77.829a7.519,7.519,0,0,0-7.511,7.511V155.7a7.51,7.51,0,1,0,15.02,0V101.746a7.519,7.519,0,0,0-7.509-7.511Zm0,0" transform="translate(0 -47.292)" fill="#1890ff"/>
    <path id="Path_5977" data-name="Path 5977" d="M394.11,172.466a14.393,14.393,0,0,1-14.377-14.377V114.851h-4.784a14.377,14.377,0,1,1,0-28.753h38.3a14.377,14.377,0,1,1,0,28.753h-4.774v43.238A14.393,14.393,0,0,1,394.11,172.466ZM374.949,94.955a5.52,5.52,0,1,0,0,11.04h9.2a4.437,4.437,0,0,1,4.437,4.437V158.1a5.52,5.52,0,1,0,11.041,0V110.423a4.437,4.437,0,0,1,4.437-4.437h9.2a5.52,5.52,0,1,0,0-11.04Zm0,0" transform="translate(-200.906 -47.694)" fill="#1890ff"/>
    <path id="Path_5978" data-name="Path 5978" d="M178.042,173.482A37.855,37.855,0,1,1,215.9,135.628a37.855,37.855,0,0,1-37.855,37.855Zm0-66.853a29,29,0,1,0,29,29A29,29,0,0,0,178.042,106.63Zm0,0" transform="translate(-78.11 -54.199)" fill="#1890ff"/>
  </g>
</svg>
