<svg xmlns="http://www.w3.org/2000/svg" width="94.14" height="87.354" viewBox="0 0 94.14 87.354">
  <g id="Group_1334" data-name="Group 1334">
    <path id="unshape_round" data-name="unshape round" d="M90.121,27.975C85.561,19.559,77.686,13.49,69.26,9.259,60.117,4.678,49.74.955,39.5.14c-8.865-.706-18.285,1.377-24.96,7.545C9.966,11.936,6.375,18.908,3.9,24.439,1.837,29.043.151,33.912-.036,38.991-.4,48.955,5.2,58.212,9.952,66.581c4.55,8,10.133,15.366,19.122,18.527,8.6,3.029,18.494,2.7,27.317.815C73.772,82.2,89.2,70.227,93.17,52.317A35.032,35.032,0,0,0,90.121,27.975Z" transform="translate(0.053 -0.008)" />
  </g>
  <g id="SvgjsG1008" transform="translate(15.348 28.944)">
    <g id="Group_1297" data-name="Group 1297" transform="translate(6 -10)">
      <g id="Group_1296" data-name="Group 1296" transform="translate(0)">
        <path id="Path_1494" data-name="Path 1494" d="M218.938,205.823a2.456,2.456,0,0,0-3.056-1.649l-21.957,6.57a.82.82,0,0,0-.326.188l-2.667,2.507a.818.818,0,0,0,.42,1.4l3.606.63a.82.82,0,0,0,.375-.022l17.816-5.33.077,1.685-5.661,1.694.47,1.569,6.273-1.877a.818.818,0,0,0,.583-.821l-.125-2.732,2.524-.755a2.456,2.456,0,0,0,1.649-3.056Zm-23.889,8-1.8-.315,1.334-1.254,3.736-1.118.47,1.568Zm5.3-1.587-.47-1.568,13.111-3.923.077,1.686Zm16.954-5.322a.814.814,0,0,1-.486.4l-2.133.638-.077-1.686,1.74-.521a.818.818,0,0,1,.955,1.173Z" transform="translate(-171.847 -182.93)" fill="#fff"/>
        <path id="Path_1495" data-name="Path 1495" d="M52.286,218.437H38.368V206.159a.818.818,0,0,0-.815-.818H22.819a.818.818,0,0,0-.818.818v26.193a.818.818,0,0,0,.818.818H52.286a.818.818,0,0,0,.818-.818v-13.1a.818.818,0,0,0-.818-.818Zm-9.005,1.637h3.274v3.278H43.282Zm-14.732-13.1h3.274v3.274H28.549Zm-4.911,0h3.274v4.092a.818.818,0,0,0,.818.818h4.911a.818.818,0,0,0,.818-.818v-4.092h3.274v11.459h-13.1Zm4.911,13.1h3.274v3.278H28.549Zm-4.911,0h3.274v4.092a.818.818,0,0,0,.818.818h4.911a.818.818,0,0,0,.818-.818v-4.092h3.274v11.459h-13.1Zm27.829,11.459h-13.1V220.074h3.274v4.092a.818.818,0,0,0,.818.818h4.913a.818.818,0,0,0,.818-.818v-4.092h3.274Z" transform="translate(-22.001 -184.059)" fill="#fff"/>
        <path id="Path_1496" data-name="Path 1496" d="M256.676,410.682h1.637v1.637h-1.637Z" transform="translate(-230.483 -366.482)" fill="#fff"/>
        <path id="Path_1497" data-name="Path 1497" d="M124.671,410.682h1.637v1.637h-1.637Z" transform="translate(-113.212 -366.482)" fill="#fff"/>
        <path id="Path_1498" data-name="Path 1498" d="M124.671,293.344h1.637v1.637h-1.637Z" transform="translate(-113.212 -262.24)" fill="#fff"/>
        <path id="Path_1499" data-name="Path 1499" d="M126.309,21.215a1.639,1.639,0,0,1,1.637-1.637h4.912v1.637h-4.092a.818.818,0,0,0-.818.818V34.312h1.637V22.852h19.645v13.1h1.637V22.034a.818.818,0,0,0-.818-.818h-4.092V19.579h4.911a1.639,1.639,0,0,1,1.637,1.637V35.13h1.637V21.215a3.278,3.278,0,0,0-3.274-3.274h-7.955l.565-2.257a.818.818,0,0,0-.791-1.017h-6.548a.818.818,0,0,0-.794,1.017l.564,2.257h-7.958a3.278,3.278,0,0,0-3.274,3.274v13.1h1.637Zm8.185-1.637h2.456a.818.818,0,0,0,.794-1.017l-.565-2.258h4.451l-.564,2.257a.818.818,0,0,0,.794,1.017h2.456v1.637h-9.822Z" transform="translate(-113.212 -14.667)" fill="#fff"/>
        <path id="Path_1500" data-name="Path 1500" d="M321.893,315.378a1.639,1.639,0,0,1-1.637,1.637h-4.911v1.637h4.912a3.278,3.278,0,0,0,3.274-3.274v-7.366h-1.637Z" transform="translate(-282.604 -275.27)" fill="#fff"/>
        <path id="Path_1501" data-name="Path 1501" d="M320.256,321.075v-5.73h-1.637v4.912h-3.274v1.637h4.092A.818.818,0,0,0,320.256,321.075Z" transform="translate(-282.604 -281.785)" fill="#fff"/>
        <path id="Path_1502" data-name="Path 1502" d="M188.251,103.489a.818.818,0,0,0-.818-.818h-3.274a.818.818,0,0,0-.818.818v3.274a.818.818,0,0,0,.818.818h3.274a.818.818,0,0,0,.818-.818Zm-1.637,2.456h-1.637v-1.637h1.637Z" transform="translate(-165.333 -92.848)" fill="#fff"/>
        <path id="Path_1503" data-name="Path 1503" d="M187.432,168.673h-3.274a.818.818,0,0,0-.818.818v3.274a.818.818,0,0,0,.818.818h3.274a.818.818,0,0,0,.818-.818v-3.274a.818.818,0,0,0-.818-.818Zm-.818,3.274h-1.637V170.31h1.637Z" transform="translate(-165.333 -151.484)" fill="#fff"/>
        <path id="Path_1504" data-name="Path 1504" d="M242.009,102.67h1.637v1.637h-1.637Z" transform="translate(-217.453 -92.848)" fill="#fff"/>
        <path id="Path_1505" data-name="Path 1505" d="M242.009,132h9.822v1.637h-9.822Z" transform="translate(-217.453 -118.908)" fill="#fff"/>
        <path id="Path_1506" data-name="Path 1506" d="M271.343,102.67h6.548v1.637h-6.548Z" transform="translate(-243.514 -92.848)" fill="#fff"/>
        <path id="Path_1507" data-name="Path 1507" d="M242.009,168.673h1.637v1.637h-1.637Z" transform="translate(-217.453 -151.484)" fill="#fff"/>
        <path id="Path_1508" data-name="Path 1508" d="M242.009,198.007h9.822v1.637h-9.822Z" transform="translate(-217.453 -177.544)" fill="#fff"/>
        <path id="Path_1509" data-name="Path 1509" d="M271.343,168.673h6.548v1.637h-6.548Z" transform="translate(-243.514 -151.484)" fill="#fff"/>
      </g>
    </g>
  </g>
</svg>
