<svg id="Layer_1" data-name="Layer 1" xmlns="http://www.w3.org/2000/svg" viewBox="0 0 77.31 77.31"><defs><style>.cls-1{fill:#01d1dd;}.cls-2{fill:#fff;}</style></defs><path class="cls-1" d="M38.65,0H77.31a0,0,0,0,1,0,0V38.66A38.65,38.65,0,0,1,38.66,77.31h0A38.65,38.65,0,0,1,0,38.66v0A38.65,38.65,0,0,1,38.65,0Z"/><g id="iot_Expert" data-name="iot Expert"><path id="Path_5900" data-name="Path 5900" class="cls-2" d="M53,49a.61.61,0,0,0-.07-.1,5.79,5.79,0,0,0-1.41-1.2c-2.8-1.72-7.71-4.64-9.29-5a2.28,2.28,0,0,0-.77-.14l-7.53-.07h0a2.42,2.42,0,0,0-2.43,2.28,2.38,2.38,0,0,0,2.27,2.5h.09l2.8,0,3.09,0a.45.45,0,0,1,0,.89h0l-9-.12h-.12l-.09,0-8.13-5.51A2.09,2.09,0,1,0,20,45.93a.1.1,0,0,0,0,0l8.12,6.46,0,0a3.27,3.27,0,0,0,1.07.5c3.06.77,10.22,2.57,10.76,2.64s5.23,0,6.94,0l.67,1.92a.58.58,0,0,0,.73.4.59.59,0,0,0,.4-.73.08.08,0,0,0,0-.05L48,54.82a.6.6,0,0,0-.56-.4h0c-2.55,0-6.76.06-7.19,0s-4.51-1.08-10.63-2.62a2.15,2.15,0,0,1-.67-.31L20.79,45l0,0a1,1,0,0,1-.3-1.26.92.92,0,0,1,1.26-.3l0,0L29.87,49h0a1.5,1.5,0,0,0,.47.19,2,2,0,0,0,.35,0l9,.11h0a1.63,1.63,0,1,0,0-3.25h0l-3.09,0-2.8,0a1.21,1.21,0,0,1-1.2-1.22v0a1.25,1.25,0,0,1,1.25-1.15h0l7.54.07a1.14,1.14,0,0,1,.4.08l.08,0c1,.22,4.41,2.1,9,4.89A4.59,4.59,0,0,1,52,49.6l4.38,8a.58.58,0,0,0,.81.19.59.59,0,0,0,.23-.76Z"/><path id="Path_5901" data-name="Path 5901" class="cls-2" d="M42.75,38.8a.81.81,0,0,0,.09-.1,8.63,8.63,0,0,0,0-11.47.52.52,0,0,0-.1-.11,8.62,8.62,0,0,0-12.18-.53c-.19.17-.36.35-.53.53a.52.52,0,0,0-.1.11,8.61,8.61,0,0,0,0,11.46.52.52,0,0,0,.1.11,8.63,8.63,0,0,0,12.18.54,6.88,6.88,0,0,0,.54-.54ZM29,33.55h2.79A15.29,15.29,0,0,0,32.26,37a11.5,11.5,0,0,0-1.69.64A7.53,7.53,0,0,1,29,33.55Zm1.61-5.24a10.43,10.43,0,0,0,1.69.63,14.72,14.72,0,0,0-.5,3.43H29a7.43,7.43,0,0,1,1.61-4.06Zm13.26,4.06H41a14.22,14.22,0,0,0-.51-3.43,10.09,10.09,0,0,0,1.69-.63,7.4,7.4,0,0,1,1.62,4.06Zm-1.62,5.25A11.09,11.09,0,0,0,40.52,37,14.22,14.22,0,0,0,41,33.55h2.79a7.39,7.39,0,0,1-1.61,4.07ZM37,33.55h2.87a14,14,0,0,1-.48,3.16A16,16,0,0,0,37,36.44Zm0-1.18V29.48a14.69,14.69,0,0,0,2.39-.26,14,14,0,0,1,.48,3.15Zm0-4.07V25.63a3.85,3.85,0,0,1,1.76,1.91c.08.17.17.36.25.55a15.08,15.08,0,0,1-2,.21Zm-1.18,0a14.9,14.9,0,0,1-2-.21c.08-.19.16-.37.25-.55a3.83,3.83,0,0,1,1.75-1.91Zm0,1.18v2.89H32.94a13.48,13.48,0,0,1,.47-3.15,14.81,14.81,0,0,0,2.39.26Zm0,4.07v2.9a14.81,14.81,0,0,0-2.39.26,13.48,13.48,0,0,1-.47-3.15H35.8Zm0,4.07V40.3a3.83,3.83,0,0,1-1.75-1.91c-.09-.18-.17-.36-.25-.55a14.92,14.92,0,0,1,2-.22Zm1.18,0a14.92,14.92,0,0,1,2,.22c-.08.19-.16.37-.25.55A3.83,3.83,0,0,1,37,40.3Zm3.17.48a12.15,12.15,0,0,1,1.2.42,7.3,7.3,0,0,1-2.13,1.34,8.4,8.4,0,0,0,.93-1.75Zm0-10.28a8.15,8.15,0,0,0-.93-1.75,7.48,7.48,0,0,1,2.13,1.33,8.53,8.53,0,0,1-1.2.42Zm-7.52,0a8.53,8.53,0,0,1-1.2-.42,7.48,7.48,0,0,1,2.13-1.33,8.15,8.15,0,0,0-.93,1.75Zm0,10.28a8.47,8.47,0,0,0,.93,1.76,7.3,7.3,0,0,1-2.13-1.34,12.15,12.15,0,0,1,1.2-.42Z"/><path id="Path_5902" data-name="Path 5902" class="cls-2" d="M56.36,30.69a1.85,1.85,0,0,0-1.74,1.24H48.26v-1.1h3.43a.59.59,0,0,0,.42-.17l2-2.05h2.7a.59.59,0,0,0,.56-.62.57.57,0,0,0-.56-.56h-3a.59.59,0,0,0-.42.17l-2,2.06H48.26v-3.2a.63.63,0,0,0-.3-.52L36.69,19.43a.62.62,0,0,0-.59,0L24.82,25.94a.61.61,0,0,0-.3.51v13a.58.58,0,0,0,.3.51l5.08,2.94a.59.59,0,0,0,.81-.2.58.58,0,0,0-.19-.81l0,0-4.78-2.76V26.79l10.68-6.16,10.69,6.16V39.13L43.5,41.2a.58.58,0,0,0-.18.81.59.59,0,0,0,.77.21L48,40a.57.57,0,0,0,.3-.51V35.11h3.3L53,36.55a1.84,1.84,0,1,0,2.49-.76,1.81,1.81,0,0,0-1.62,0l-1.63-1.63a.62.62,0,0,0-.42-.18H48.26v-.82h6.36a1.84,1.84,0,1,0,1.74-2.42Zm-1.1,6.72a.66.66,0,0,1-1.31,0,.66.66,0,0,1,.66-.66h0a.66.66,0,0,1,.65.66Zm1.1-4.24a.65.65,0,1,1,.65-.65h0A.65.65,0,0,1,56.36,33.17Z"/></g></svg>