<svg xmlns="http://www.w3.org/2000/svg" width="284.596" height="105.278" viewBox="0 0 284.596 105.278">
  <g id="_.net" data-name=".net" transform="translate(4979.395 -1232.936)">
    <path id="Path_5979" data-name="Path 5979" d="M20.345-52.267a7.675,7.675,0,0,1-5.676-2.386A7.852,7.852,0,0,1,12.3-60.381a7.974,7.974,0,0,1,2.349-5.746,7.62,7.62,0,0,1,5.676-2.423,7.819,7.819,0,0,1,5.783,2.423,7.911,7.911,0,0,1,2.419,5.746,7.793,7.793,0,0,1-2.386,5.713,7.878,7.878,0,0,1-5.8,2.4ZM133.5-53.857H118.6L65.241-136.5a34.53,34.53,0,0,1-3.319-6.506h-.435a106.737,106.737,0,0,1,.579,14.244v74.9H49.921V-157.54H65.68L117.592-76.2q3.253,5.06,4.194,6.941h.288a109.7,109.7,0,0,1-.738-15.255v-73.027h12.145Zm82.133,0H160.678v-103.68h52.631v10.991H172.824v34.489h37.454v10.917H172.824v36.3h42.784ZM296.9-146.546H266.958v92.689H254.813v-92.689H224.938v-10.991h71.921Z" transform="translate(-4991.694 1390.48)" fill="#1563ff" opacity="0.05"/>
  </g>
</svg>
