<svg id="Layer_1" data-name="Layer 1" xmlns="http://www.w3.org/2000/svg" viewBox="0 0 77.31 77.31"><defs><style>.cls-1{fill:#ff5a6a;}.cls-2{fill:#fff;}</style></defs><path class="cls-1" d="M38.65,0H77.31a0,0,0,0,1,0,0V38.66A38.65,38.65,0,0,1,38.66,77.31h0A38.65,38.65,0,0,1,0,38.66v0A38.65,38.65,0,0,1,38.65,0Z"/><path class="cls-2" d="M55.32,32.45a5.45,5.45,0,0,1,5.53,5,6.11,6.11,0,0,1-6.15,5.87,5.26,5.26,0,0,1-5.18-5.18A5.88,5.88,0,0,1,55.32,32.45Z"/><path class="cls-2" d="M35.49,39a5.73,5.73,0,0,1,5.75-5.73,4.19,4.19,0,0,1,4.07,4.3c0,3.07-2.75,6-5.68,5.88A4.23,4.23,0,0,1,35.49,39Z"/><path class="cls-2" d="M54.83,29.51c-2.72-.05-4.6-1.83-4.53-4.27.08-2.66,2.74-4.95,5.72-4.91,2.6,0,4.51,1.77,4.5,4.09A5.4,5.4,0,0,1,54.83,29.51Z"/><path class="cls-2" d="M37.39,26.91a5.5,5.5,0,0,1,5.28-5.32,3.64,3.64,0,0,1,3.87,3.69,5.59,5.59,0,0,1-5.6,5.22A3.51,3.51,0,0,1,37.39,26.91Z"/><path class="cls-2" d="M24.55,39.56c0-2.75,2.57-5.55,5.16-5.54a3.61,3.61,0,0,1,3.5,3.71c0,2.88-2.51,5.71-5.19,5.74C26.06,43.49,24.58,41.82,24.55,39.56Z"/><path class="cls-2" d="M56.75,9.43c2.24,0,3.77,1.33,3.8,3.3,0,2.49-2.49,4.68-5.41,4.7-2.32,0-4-1.39-4-3.31C51.08,11.68,53.78,9.44,56.75,9.43Z"/><path class="cls-2" d="M44.29,11.33a3.1,3.1,0,0,1,3.32,3.08c0,2.3-2.8,4.82-5.23,4.74A3.28,3.28,0,0,1,39,16C39,13.73,41.77,11.29,44.29,11.33Z"/><path class="cls-2" d="M22.25,38.33a5.64,5.64,0,0,1-2.19,4c-1.2.87-2.55,1.64-4,.69a3.8,3.8,0,0,1-1.41-4.19,5.14,5.14,0,0,1,3.69-3.93C20.47,34.14,22.38,35.79,22.25,38.33Z"/><path class="cls-2" d="M27.17,27.92c.1-2.43,2.62-4.86,4.95-4.76a3.06,3.06,0,0,1,2.93,3.25c-.12,2.41-2.68,4.84-5,4.73A2.85,2.85,0,0,1,27.17,27.92Z"/><path class="cls-2" d="M29.08,18a5.35,5.35,0,0,1,5.56-4.74A2.79,2.79,0,0,1,37,16.68a5.82,5.82,0,0,1-4.88,4.1A2.64,2.64,0,0,1,29.08,18Z"/><path class="cls-2" d="M22.46,24.16a2.76,2.76,0,0,1,2.7,3.16A5.69,5.69,0,0,1,20.8,32a2.51,2.51,0,0,1-3.08-2.45C17.54,26.88,20,24.15,22.46,24.16Z"/><path class="cls-2" d="M22.69,21.88a2.28,2.28,0,0,1-2.26-2.42,4.85,4.85,0,0,1,4.44-4.37,2.18,2.18,0,0,1,2.37,2.36C27.26,19.48,24.81,21.9,22.69,21.88Z"/><path class="cls-2" d="M64.29,51.47a23.17,23.17,0,0,1-2.36.07c-.16,0-.4-.1-.46.13s.1.4.3.51a1.93,1.93,0,0,0,1.64.1c.26-.08.37-.07.44.22.15.63.17.64-.48.77a3.1,3.1,0,0,1-2.45-.36,2.19,2.19,0,0,1-.72-2.44A2,2,0,0,1,62,48.93a1.81,1.81,0,0,1,2.14,1.69c0,.09,0,.2.13.22Zm-2.14-.84h0c.14,0,.28,0,.42,0s.29-.09.23-.3a.57.57,0,0,0-.46-.47.65.65,0,0,0-.7.29c-.09.12-.21.26-.13.41s.23.06.36.07Z"/><path class="cls-2" d="M42.25,51.1c0-.57,0-1.15,0-1.73,0-.26.06-.4.35-.37A1.7,1.7,0,0,0,43,49c.19,0,.32,0,.35.25s.17.21.33.08a1.78,1.78,0,0,1,1.7-.33.78.78,0,0,1,.43.25c.19.26.35.24.59,0a1.75,1.75,0,0,1,1.16-.37,1.27,1.27,0,0,1,1.35,1.29c0,.92,0,1.84,0,2.76,0,.21-.09.29-.3.29-1.27,0-1,.19-1-1,0-.59,0-1.18,0-1.77,0-.42-.17-.6-.52-.61a.74.74,0,0,0-.82.64q0,1.17,0,2.34c0,.28-.1.36-.37.36-.93,0-.93,0-.93-.9,0-.59,0-1.17,0-1.76s-.2-.68-.55-.68a.77.77,0,0,0-.8.71c0,.75,0,1.51,0,2.26,0,.27-.09.37-.37.37-1,0-1,0-1-1Z"/><path class="cls-2" d="M35.15,51.12c0-.59,0-1.18,0-1.76,0-.26.07-.38.34-.36a3.57,3.57,0,0,0,.46,0,.22.22,0,0,1,.26.18c.06.29.16.31.39.12a1.65,1.65,0,0,1,2.24.09c.15.14.23,0,.33,0A1.85,1.85,0,0,1,40.82,49a1.13,1.13,0,0,1,.93,1.1c0,1,0,1.93,0,2.9,0,.19-.08.28-.28.27s-.45,0-.67,0-.36-.12-.35-.38c0-.75,0-1.51,0-2.26,0-.48-.18-.7-.55-.7a.72.72,0,0,0-.8.73c0,.75,0,1.49,0,2.23,0,.3-.1.38-.39.38-1,0-1,0-1-.95V50.55c0-.43-.17-.62-.51-.63a.79.79,0,0,0-.83.65c0,.76,0,1.53,0,2.29,0,.28-.07.4-.38.4-.92,0-.92,0-.92-.9Z"/><path class="cls-2" d="M32.49,48.93a2,2,0,0,1,2.17,2.27,2.15,2.15,0,0,1-2.22,2.17,2.1,2.1,0,0,1-2.23-2.18A2.16,2.16,0,0,1,32.49,48.93Zm.82,2.25a1.52,1.52,0,0,0-.23-1,.76.76,0,0,0-1.29,0,1.83,1.83,0,0,0-.05,1.7.76.76,0,0,0,.78.46.74.74,0,0,0,.67-.54A1.35,1.35,0,0,0,33.31,51.18Z"/><path class="cls-2" d="M28.73,47.59a3,3,0,0,1,1.23.2c.22.08.29.21.2.43a.57.57,0,0,0,0,.14c-.15.5-.15.5-.64.35a1.75,1.75,0,0,0-2.3,2.18,1.73,1.73,0,0,0,2.48,1.32c.29-.09.36,0,.43.24.17.65.17.68-.49.81a3.23,3.23,0,0,1-2.94-.6,2.9,2.9,0,0,1-.83-3,2.54,2.54,0,0,1,2.07-1.95A2.63,2.63,0,0,1,28.73,47.59Z"/><path class="cls-2" d="M51.85,51.53H50.72c-.22,0-.27.1-.2.29a.77.77,0,0,0,.56.49,2.13,2.13,0,0,0,1.39,0c.25-.1.35-.05.42.21.16.64.17.65-.48.79a4,4,0,0,1-1.55,0,2.2,2.2,0,0,1-1.4-3.35A2.11,2.11,0,0,1,51.85,49a1.8,1.8,0,0,1,1.38,1.86c0,.79.08.67-.67.68Zm-.64-.9h0c.13,0,.26,0,.39,0,.29,0,.31-.12.23-.35a.6.6,0,0,0-.51-.43.69.69,0,0,0-.66.32c-.07.12-.17.25-.09.39s.22.06.33.07Z"/><path class="cls-2" d="M21.49,52.15V49.43c0-.15,0-.36.2-.37s.48-.09.52.26.12.2.28.09a1.74,1.74,0,0,1,1.93-.15,1.78,1.78,0,0,1,.89,1.66,2.3,2.3,0,0,1-.54,1.78,2,2,0,0,1-2.21.5c-.25-.09-.3,0-.3.21,0,.5,0,1,0,1.52,0,.3-.1.38-.39.38s-.4-.06-.4-.37C21.5,54,21.49,53.08,21.49,52.15Zm.78-.84c0,.3,0,.61,0,.91a.37.37,0,0,0,.2.35,1.32,1.32,0,0,0,1.83-.51,2.17,2.17,0,0,0,.05-1.78,1.06,1.06,0,0,0-1.28-.56.92.92,0,0,0-.79,1Z"/><path class="cls-2" d="M58.83,48.92a3.11,3.11,0,0,1,1,.18c.19.06.27.17.18.37a.47.47,0,0,0-.06.2c0,.34-.18.42-.52.29a1.18,1.18,0,0,0-1.36.31A1.54,1.54,0,0,0,58,51.84a1.16,1.16,0,0,0,1.25.55.7.7,0,0,1,.14,0c.16,0,.35-.2.45,0A2,2,0,0,1,60,53c0,.08,0,.13-.11.16-.9.41-2.68.34-3.25-1A2.25,2.25,0,0,1,58.83,48.92Z"/><path class="cls-2" d="M21,51.15a2,2,0,0,1-2.45,2.16,1.76,1.76,0,0,1-1.49-1.24,2.22,2.22,0,0,1,1.2-2.91A2,2,0,0,1,21,51.15Zm-.8,0a1.71,1.71,0,0,0-.34-1.08,1.09,1.09,0,0,0-1.06-.42,1,1,0,0,0-.92.68,2.22,2.22,0,0,0,0,1.66,1.15,1.15,0,0,0,1,.74,1.08,1.08,0,0,0,1-.54A2,2,0,0,0,20.2,51.16Z"/><path class="cls-2" d="M12.84,51.16V49.5c0-.16-.05-.36.21-.37s.45,0,.48.27.15.19.29.07a1.92,1.92,0,0,1,1.39-.41,1.18,1.18,0,0,1,1.16,1.15c0,.92,0,1.84,0,2.76,0,.31-.2.28-.41.29s-.39,0-.38-.31c0-.79,0-1.57,0-2.36s-.32-1-1-.88a1,1,0,0,0-1,1.06c0,.72,0,1.44,0,2.15,0,.31-.16.34-.4.34s-.41,0-.4-.34C12.85,52.33,12.84,51.74,12.84,51.16Z"/><path class="cls-2" d="M54.69,49.7a1.45,1.45,0,0,1,1.4-.77c.43,0,.51.13.42.55l0,.17c0,.27-.09.42-.46.35-.78-.14-1.19.24-1.21,1.07,0,.58,0,1.17,0,1.76,0,.31-.07.44-.41.43-.89,0-.89,0-.89-.87s0-2,0-3c0-.28.07-.43.37-.39H54c.38,0,.64,0,.63.5A1,1,0,0,0,54.69,49.7Z"/></svg>