<svg xmlns="http://www.w3.org/2000/svg" width="94.14" height="87.354" viewBox="0 0 94.14 87.354">
  <g id="Group_1334" data-name="Group 1334">
    <path id="unshape_round" data-name="unshape round" d="M90.121,27.975C85.561,19.559,77.686,13.49,69.26,9.259,60.117,4.678,49.74.955,39.5.14c-8.865-.706-18.285,1.377-24.96,7.545C9.966,11.936,6.375,18.908,3.9,24.439,1.837,29.043.151,33.912-.036,38.991-.4,48.955,5.2,58.212,9.952,66.581c4.55,8,10.133,15.366,19.122,18.527,8.6,3.029,18.494,2.7,27.317.815C73.772,82.2,89.2,70.227,93.17,52.317A35.032,35.032,0,0,0,90.121,27.975Z" transform="translate(0.053 -0.008)" />
  </g>
  <g id="SvgjsG1008" transform="translate(20.379 19.618)">
    <g id="Group_1295" data-name="Group 1295" transform="translate(0 0.004)">
      <g id="Group_1294" data-name="Group 1294">
        <path id="Path_1487" data-name="Path 1487" d="M48.8,16.765H24.121V8.8a2.388,2.388,0,0,0-2.388-2.388H7.405A2.388,2.388,0,0,0,5.017,8.8V15.02L2,22.552a2.363,2.363,0,0,0-.171.888v8.184a4.005,4.005,0,0,0,.8,2.388l.525.7A4.031,4.031,0,0,1,3.891,37.8L2.634,49.315a.8.8,0,0,0,.791.882h8.757a.8.8,0,0,0,.79-.892L11.488,37.155a.8.8,0,0,1,.121-.584l.468-.7h2.493V49.4a.8.8,0,0,0,.8.8h3.184a.8.8,0,0,0,.8-.8V35.869h2.388a2.388,2.388,0,0,0,2.388-2.388V31.093H44.817V49.4a.8.8,0,0,0,.8.8H48.8a.8.8,0,0,0,.8-.8V17.561A.8.8,0,0,0,48.8,16.765Zm-3.98,7.96h-3.98V23.133H39.246v1.592H24.121V21.541h20.7ZM11.388,33.072a3.17,3.17,0,0,1-.535,1.767l-.566.85a2.344,2.344,0,0,0-.369,1.706L11.285,48.6H4.313L5.466,38.018a5.594,5.594,0,0,0-1.035-4.26l-.529-.7a2.4,2.4,0,0,1-.477-1.433V23.439a.783.783,0,0,1,.057-.3l1.535-3.838V24.4h0a1.582,1.582,0,0,0,.466,1.12l.919.919a1.592,1.592,0,0,0,1.946.239l2.48-1.489a.646.646,0,0,1,.888.888L9.909,29.092a.8.8,0,0,0,.12.973l.427.427a3.164,3.164,0,0,1,.932,2.25Zm.208-3.694L13.086,26.9a2.239,2.239,0,0,0-3.071-3.071l-.217.131V11.193h9.549V29.5H11.7c-.038-.041-.07-.08-.111-.124ZM17.754,48.6H16.161V35.869h1.592ZM22.53,33.479a.8.8,0,0,1-.8.8h-8.92a4.776,4.776,0,0,0,.164-1.205v-.33a4.764,4.764,0,0,0-.3-1.649h7.46a.8.8,0,0,0,.8-.8V10.4a.8.8,0,0,0-.8-.8H9a.8.8,0,0,0-.8.8V24.911l-.673.4L6.609,24.4V8.8a.8.8,0,0,1,.8-.8H21.733a.8.8,0,0,1,.8.8ZM40.838,29.5v-1.59H39.246V29.5H24.121V26.317h20.7V29.5ZM48,48.6H46.41V20.745a.8.8,0,0,0-.8-.8H24.121V18.357H48Z" transform="translate(-1.833 -2.444)" fill="#fff"/>
        <path id="Path_1488" data-name="Path 1488" d="M37.134,13.3a1.592,1.592,0,1,0,2.251,0,1.592,1.592,0,0,0-2.251,0Z" transform="translate(-6.42 -3.289)" fill="#fff"/>
        <path id="Path_1489" data-name="Path 1489" d="M41.366,10.566a4.782,4.782,0,0,0-6.755,0l1.126,1.126a3.189,3.189,0,0,1,4.5,0Z" transform="translate(-6.149 -2.806)" fill="#fff"/>
        <path id="Path_1490" data-name="Path 1490" d="M43.276,7.832a7.96,7.96,0,0,0-11.259,0l1.126,1.126a6.368,6.368,0,0,1,9.006,0Z" transform="translate(-5.807 -2.323)" fill="#fff"/>
        <path id="Path_1491" data-name="Path 1491" d="M44.061,6.225,45.187,5.1a11.155,11.155,0,0,0-15.761,0l1.126,1.126a9.562,9.562,0,0,1,13.509,0Z" transform="translate(-5.466 -1.842)" fill="#fff"/>
        <path id="Path_1492" data-name="Path 1492" d="M43.855,43.036H43.68l-1.138-4.561a2.388,2.388,0,0,0-2.319-1.807H30.772a2.388,2.388,0,0,0-2.317,1.807l-1.14,4.559H27.14a2.388,2.388,0,0,0-2.389,2.391v2.388a2.388,2.388,0,0,0,1.592,2.241v2.535a1.592,1.592,0,0,0,1.592,1.593h2.388a1.592,1.592,0,0,0,1.592-1.592V50.2h7.164v2.388a1.592,1.592,0,0,0,1.592,1.594h2.388a1.592,1.592,0,0,0,1.592-1.592V50.054a2.388,2.388,0,0,0,1.592-2.241V45.425a2.388,2.388,0,0,0-2.389-2.389Zm-1.59,2.389a.8.8,0,1,1-.8-.8.8.8,0,0,1,.8.8ZM30,38.864a.8.8,0,0,1,.773-.6h9.452a.8.8,0,0,1,.773.6l1.042,4.17H28.955Zm.325,6.561a.8.8,0,1,1-.8-.8.8.8,0,0,1,.8.8Zm0,7.164h-2.39V50.2h2.388Zm10.348,0V50.2h2.388v2.388Zm3.98-4.776a.8.8,0,0,1-.8.8H27.139a.8.8,0,0,1-.8-.8V45.425a.8.8,0,0,1,.8-.8h.147a2.363,2.363,0,0,0-.147.8,2.388,2.388,0,1,0,4.776,0,2.363,2.363,0,0,0-.147-.8h7.457a2.363,2.363,0,0,0-.147.8,2.388,2.388,0,0,0,4.776,0,2.363,2.363,0,0,0-.147-.8h.147a.8.8,0,0,1,.8.8Z" transform="translate(-4.851 -6.427)" fill="#fff"/>
        <path id="Path_1493" data-name="Path 1493" d="M16.018,15.584A3.184,3.184,0,1,0,19.2,18.768a3.184,3.184,0,0,0-3.184-3.184Zm0,4.776a1.592,1.592,0,1,1,1.592-1.592,1.592,1.592,0,0,1-1.592,1.592Z" transform="translate(-3.282 -3.651)" fill="#fff"/>
      </g>
    </g>
  </g>
</svg>
