<svg xmlns="http://www.w3.org/2000/svg" width="171.5" height="170.282" viewBox="0 0 171.5 170.282">
  <g id="iot_prod_dev" data-name="iot prod dev" transform="translate(-14.293 -16)" opacity="0.06">
    <path id="Path_5980" data-name="Path 5980" d="M173.876,93.446l11.917-6.307-8.049-24.5-13.36,1.824-9.168-12.476,5.947-12.148L140.134,24.72,130.3,34.057,115.44,29.278,113.031,16H87.055L84.648,29.272,69.785,34.051l-9.831-9.337L38.92,39.84l5.947,12.148L35.7,64.464,22.34,62.64l-8.047,24.5L26.21,93.446v15.4L14.293,115.15l8.049,24.5,13.36-1.824L44.87,150.3l-5.947,12.148,21.032,15.121,9.831-9.337,14.863,4.779,2.407,13.272h25.977l2.407-13.265,14.863-4.779,9.831,9.337,21.032-15.121-5.947-12.148,9.168-12.476,13.36,1.824,8.049-24.5-11.917-6.307Zm-.048,39.937-12.018-1.641-13.2,17.966,5.349,10.925-13.326,9.579-8.865-8.413-21.308,6.856-2.169,11.957H91.8l-2.169-11.957-21.31-6.849-8.865,8.413-13.324-9.587L51.48,149.7l-13.2-17.956L26.26,133.386l-5.078-15.458,10.705-5.667V90.027L21.182,84.36,26.26,68.9l12.018,1.641,13.2-17.956L46.129,41.649,59.455,32.07l8.865,8.413,21.31-6.85L91.8,21.675h16.5l2.169,11.957,21.31,6.85,8.865-8.413,13.324,9.579-5.353,10.938,13.2,17.966,12.018-1.641L178.9,84.369,168.2,90.027v22.234l10.705,5.667Z" transform="translate(0)" fill="#1563ff"/>
    <path id="Path_5981" data-name="Path 5981" d="M147.6,88a59.6,59.6,0,1,0,59.6,59.6A59.6,59.6,0,0,0,147.6,88Zm0,113.525A53.927,53.927,0,1,1,201.529,147.6,53.927,53.927,0,0,1,147.6,201.525Z" transform="translate(-47.557 -46.456)" fill="#1563ff"/>
    <path id="Path_5982" data-name="Path 5982" d="M221.568,148.242l-28.381-16.555a8.527,8.527,0,0,0-8.575,0L156.23,148.242A8.545,8.545,0,0,0,152,155.6v38.89a8.543,8.543,0,0,0,4.225,7.354l28.381,16.555a8.527,8.527,0,0,0,8.575,0l28.381-16.555a8.545,8.545,0,0,0,4.225-7.354V155.6a8.543,8.543,0,0,0-4.219-7.354Zm-34.109-11.652a2.843,2.843,0,0,1,2.858,0l26.994,15.748-27,15.748a2.841,2.841,0,0,1-2.858,0l-4.764-2.774,13.543-8.125-16.081-9.459-13.608,8.165-6.1-3.554Zm-18.634,27.2,5.68,3.314v8.346l-5.679-3.339Zm3.323-4.632,8.043-4.825,4.939,2.906-8.022,4.813Zm-13.072,37.785a2.858,2.858,0,0,1-1.408-2.451v-37.21l5.478,3.2v14.881l17.028,10.01V170.409l4.417,2.576a8.487,8.487,0,0,0,1.452.669v39.016Zm59.623,0-26.973,15.734V173.656a8.483,8.483,0,0,0,1.452-.669l26.929-15.709v37.21a2.859,2.859,0,0,1-1.408,2.452Z" transform="translate(-88.852 -73.896)" fill="#1563ff"/>
  </g>
</svg>
