<svg xmlns="http://www.w3.org/2000/svg" width="94.14" height="87.354" viewBox="0 0 94.14 87.354">
  <g id="Group_1334" data-name="Group 1334">
    <path id="unshape_round" data-name="unshape round" d="M90.121,27.975C85.561,19.559,77.686,13.49,69.26,9.259,60.117,4.678,49.74.955,39.5.14c-8.865-.706-18.285,1.377-24.96,7.545C9.966,11.936,6.375,18.908,3.9,24.439,1.837,29.043.151,33.912-.036,38.991-.4,48.955,5.2,58.212,9.952,66.581c4.55,8,10.133,15.366,19.122,18.527,8.6,3.029,18.494,2.7,27.317.815C73.772,82.2,89.2,70.227,93.17,52.317A35.032,35.032,0,0,0,90.121,27.975Z" transform="translate(0.053 -0.008)" />
  </g>
  <g id="SvgjsG1008" transform="translate(35.263 12.564)">
    <g id="Group_1303" data-name="Group 1303" transform="translate(-12 6)">
      <g id="Group_1302" data-name="Group 1302">
        <path id="Path_1514" data-name="Path 1514" d="M51.335,410.682h1.557v1.557H51.335Zm0,0" transform="translate(-45.887 -367.099)" fill="#fff"/>
        <path id="Path_1515" data-name="Path 1515" d="M80.67,410.682h1.557v1.557H80.67Zm0,0" transform="translate(-72.109 -367.099)" fill="#fff"/>
        <path id="Path_1516" data-name="Path 1516" d="M110,410.682h1.557v1.557H110Zm0,0" transform="translate(-98.33 -367.099)" fill="#fff"/>
        <path id="Path_1517" data-name="Path 1517" d="M48.253,40.33V35.941l-1.964-.394a8.574,8.574,0,0,0-.558-1.347l1.112-1.668-3.1-3.1-1.667,1.113a8.544,8.544,0,0,0-1.348-.562l-.394-1.964H36.579V18.568a3.109,3.109,0,0,0,2.335-3V13.072L35.022,3.735V0H3.891V3.735L0,13.072v2.491a3.109,3.109,0,0,0,2.335,3.005V48.253h38l.394-1.964a8.475,8.475,0,0,0,1.348-.562l1.667,1.113,3.1-3.1L45.73,42.068a8.562,8.562,0,0,0,.558-1.347ZM30.542,34.2a8.418,8.418,0,0,0-.434,1.009,3.865,3.865,0,0,0-2.53-2.376l-5.01-1.5v-1.4a4.654,4.654,0,0,0,1.557-3.471V24.126a4.67,4.67,0,0,0-9.34,0v2.335a4.656,4.656,0,0,0,1.557,3.471v1.4l-5.01,1.5a3.865,3.865,0,0,0-2.773,3.725v3.909H7v-21.9a3.007,3.007,0,0,0,3.113-.965,3.072,3.072,0,0,0,4.669,0,3.072,3.072,0,0,0,4.669,0,3.072,3.072,0,0,0,4.669,0,3.072,3.072,0,0,0,4.669,0,3.007,3.007,0,0,0,3.112.965V30.053L29.43,32.533Zm-6.414,2.379V40.47H14.787V36.579H13.231V40.47H10.12V36.561a2.319,2.319,0,0,1,1.664-2.237L16.9,32.788l2.556,2.556,2.557-2.557,5.119,1.536a2.319,2.319,0,0,1,1.539,1.486l-.656.132V40.33l.7.141H25.683V36.579Zm-4.669-7a3.116,3.116,0,0,1-3.113-3.113V24.126a3.113,3.113,0,1,1,6.226,0v2.335a3.116,3.116,0,0,1-3.114,3.113Zm0,1.557a4.647,4.647,0,0,0,1.557-.273v.729l-1.557,1.557L17.9,31.587v-.728a4.647,4.647,0,0,0,1.557.275ZM7.481,4.67,4.887,12.452H1.945L5.189,4.67Zm26.243,0,3.243,7.782H34.027L31.432,4.67ZM32.687,15.564a1.557,1.557,0,1,1-3.113,0V14.009h3.113ZM10.893,14.009h3.113v1.557a1.557,1.557,0,1,1-3.113,0Zm4.669,0h3.113v1.557a1.557,1.557,0,1,1-3.113,0Zm4.669,0h3.113v1.557a1.557,1.557,0,1,1-3.113,0Zm4.669,0h3.113v1.557a1.557,1.557,0,1,1-3.113,0Zm7.481-1.557h-3L27.456,4.67h2.336ZM25.853,4.67,27.8,12.453H24.843L24.194,4.67Zm-3.222,0,.651,7.783H20.235V4.67Zm-3.953,7.782H15.633l.648-7.783h2.4Zm-4.6,0H11.114L13.06,4.67h1.66Zm-4.563,0H6.528L9.122,4.67h2.334ZM9.34,14.009v1.557a1.557,1.557,0,1,1-3.113,0V14.009ZM33.466,17.6a3.092,3.092,0,0,0,1.557.965V30.175a8.744,8.744,0,0,0-.823.367l-.734-.492Zm2.335-.481a1.558,1.558,0,0,1-1.557-1.557V14.009h3.113v1.557A1.558,1.558,0,0,1,35.8,17.122ZM33.466,1.557V3.113H5.448V1.557ZM1.557,15.566V14.009H4.67v1.557a1.557,1.557,0,1,1-3.113,0Zm2.335,3A3.092,3.092,0,0,0,5.448,17.6V42.028H30.52l.02.044L29.428,43.74,32.388,46.7H3.891ZM32.751,46.7l1.449-.967a8.545,8.545,0,0,0,1.348.562l.082.408Zm12.286-7.309-.121.475a6.95,6.95,0,0,1-.765,1.848l-.251.422.938,1.407-1.3,1.3L42.134,43.9l-.422.251a6.942,6.942,0,0,1-1.848.766l-.474.121-.333,1.66h-1.84l-.332-1.659-.474-.121a6.968,6.968,0,0,1-1.848-.766l-.422-.25-1.406.938-1.3-1.3.94-1.41-.252-.422a6.95,6.95,0,0,1-.765-1.848l-.121-.475-1.66-.332V37.217l1.659-.332.121-.475a6.949,6.949,0,0,1,.76-1.848l.251-.422-.939-1.41,1.3-1.3,1.406.939.422-.251a6.942,6.942,0,0,1,1.848-.766l.474-.121.333-1.66h1.837l.332,1.659.474.121a6.967,6.967,0,0,1,1.848.766l.422.25,1.406-.938,1.307,1.3-.94,1.41.252.422a6.95,6.95,0,0,1,.765,1.848l.121.475,1.66.332v1.838Zm0,0" fill="#fff"/>
        <path id="Path_1518" data-name="Path 1518" d="M332.777,308.011a5.412,5.412,0,0,0-3.154,1.011l.9,1.265a3.886,3.886,0,0,1,5.421,5.421l1.265.9a5.443,5.443,0,0,0-4.435-8.6Zm0,0" transform="translate(-294.641 -275.324)" fill="#fff"/>
        <path id="Path_1519" data-name="Path 1519" d="M313.462,336.668a3.887,3.887,0,0,1-3.169-6.143l-1.265-.9a5.443,5.443,0,0,0,7.59,7.59l-.9-1.265A3.861,3.861,0,0,1,313.462,336.668Zm0,0" transform="translate(-275.326 -294.641)" fill="#fff"/>
      </g>
    </g>
  </g>
</svg>
